G75*
G70*
%OFA0B0*%
%FSLAX24Y24*%
%IPPOS*%
%LPD*%
%AMOC8*
5,1,8,0,0,1.08239X$1,22.5*
%
%ADD10C,0.1340*%
%ADD11R,0.0820X0.0820*%
%ADD12C,0.0820*%
%ADD13C,0.0640*%
%ADD14C,0.1780*%
%ADD15OC8,0.0640*%
%ADD16C,0.0753*%
%ADD17C,0.0792*%
D10*
X007109Y001151D03*
X039109Y001151D03*
X036609Y020151D03*
X007109Y020151D03*
D11*
X017609Y020101D03*
X026109Y020101D03*
X028109Y020201D03*
X030109Y001201D03*
X021109Y001201D03*
D12*
X022109Y001101D03*
X023109Y001201D03*
X024109Y001101D03*
X025109Y001201D03*
X026109Y001101D03*
X027109Y001201D03*
X028109Y001101D03*
X031109Y001101D03*
X032109Y001201D03*
X033109Y001101D03*
X034109Y001201D03*
X035109Y001101D03*
X036109Y001201D03*
X037109Y001101D03*
X038039Y003151D03*
X039179Y003151D03*
X039059Y004151D03*
X038059Y004151D03*
X038159Y005151D03*
X039159Y005151D03*
X039059Y006151D03*
X038059Y006151D03*
X038159Y007151D03*
X039159Y007151D03*
X039059Y008151D03*
X038059Y008151D03*
X038159Y009151D03*
X039159Y009151D03*
X039059Y010151D03*
X038059Y010151D03*
X038159Y011151D03*
X039159Y011151D03*
X039059Y012151D03*
X038059Y012151D03*
X038159Y013151D03*
X039159Y013151D03*
X039059Y014151D03*
X038059Y014151D03*
X038159Y015151D03*
X039159Y015151D03*
X039059Y016151D03*
X038059Y016151D03*
X038159Y017151D03*
X039159Y017151D03*
X039059Y018151D03*
X038059Y018151D03*
X038159Y019151D03*
X039159Y019151D03*
X039179Y020151D03*
X038039Y020151D03*
X035109Y020101D03*
X034109Y020201D03*
X033109Y020101D03*
X032109Y020201D03*
X031109Y020101D03*
X030109Y020201D03*
X029109Y020101D03*
X025109Y020201D03*
X024109Y020101D03*
X023109Y020201D03*
X022109Y020101D03*
X021109Y020201D03*
X020109Y020101D03*
X019109Y020201D03*
X016609Y020201D03*
X015609Y020101D03*
X014609Y020201D03*
X013609Y020101D03*
X012609Y020201D03*
X011609Y020101D03*
X010609Y020201D03*
X014109Y001151D03*
X015109Y001051D03*
X016109Y001151D03*
X017109Y001051D03*
X018109Y001151D03*
X019109Y001051D03*
D13*
X030229Y006151D02*
X030789Y006151D01*
X030789Y007151D02*
X030229Y007151D01*
X030229Y008151D02*
X030789Y008151D01*
X030789Y009151D02*
X030229Y009151D01*
X030229Y010151D02*
X030789Y010151D01*
X030789Y011151D02*
X030229Y011151D01*
X030229Y012151D02*
X030789Y012151D01*
X030789Y013151D02*
X030229Y013151D01*
X030229Y014151D02*
X030789Y014151D01*
X033229Y014151D02*
X033789Y014151D01*
X033789Y013151D02*
X033229Y013151D01*
X033229Y012151D02*
X033789Y012151D01*
X033789Y011151D02*
X033229Y011151D01*
X033229Y010151D02*
X033789Y010151D01*
X033789Y009151D02*
X033229Y009151D01*
X033229Y008151D02*
X033789Y008151D01*
X033789Y007151D02*
X033229Y007151D01*
X033229Y006151D02*
X033789Y006151D01*
D14*
X004721Y001701D03*
X003540Y003551D03*
X005902Y003551D03*
D15*
X020209Y016151D03*
X020209Y017351D03*
X023209Y017351D03*
X023209Y016151D03*
D16*
X013031Y014293D03*
X011653Y014293D03*
X010275Y014293D03*
X008897Y014293D03*
X007519Y014293D03*
X006142Y014293D03*
X004764Y014293D03*
X003386Y014293D03*
X002008Y014293D03*
X001986Y010191D03*
X003364Y010191D03*
X004742Y010191D03*
X006120Y010191D03*
X007498Y010191D03*
X008876Y010191D03*
X010254Y010191D03*
X011632Y010191D03*
X013010Y010191D03*
D17*
X018909Y004007D02*
X018909Y003295D01*
X019909Y003295D02*
X019909Y004007D01*
X020909Y004007D02*
X020909Y003295D01*
X021909Y003295D02*
X021909Y004007D01*
X022909Y004007D02*
X022909Y003295D01*
X023909Y003295D02*
X023909Y004007D01*
X024909Y004007D02*
X024909Y003295D01*
X025909Y003295D02*
X025909Y004007D01*
X026909Y004007D02*
X026909Y003295D01*
X027909Y003295D02*
X027909Y004007D01*
M02*
