G75*
G70*
%OFA0B0*%
%FSLAX24Y24*%
%IPPOS*%
%LPD*%
%AMOC8*
5,1,8,0,0,1.08239X$1,22.5*
%
%ADD10C,0.0080*%
%ADD11C,0.0100*%
%ADD12C,0.0060*%
%ADD13C,0.0120*%
%ADD14C,0.0160*%
%ADD15C,0.0030*%
%ADD16R,0.0150X0.0200*%
%ADD17C,0.0040*%
D10*
X001690Y001780D02*
X001690Y005323D01*
X005902Y005323D01*
X005902Y004496D01*
X005902Y002606D02*
X005902Y001780D01*
X005627Y001780D01*
X003776Y001780D02*
X001690Y001780D01*
X013609Y001351D02*
X013609Y000851D01*
X013859Y000601D01*
X014359Y000601D01*
X014609Y000851D01*
X014609Y001351D01*
X014859Y001601D01*
X015359Y001601D01*
X015609Y001351D01*
X015609Y000851D01*
X015359Y000601D01*
X014859Y000601D01*
X014609Y000851D01*
X015609Y000851D02*
X015859Y000601D01*
X016359Y000601D01*
X016609Y000851D01*
X016609Y001351D01*
X016859Y001601D01*
X017359Y001601D01*
X017609Y001351D01*
X017609Y000851D01*
X017359Y000601D01*
X016859Y000601D01*
X016609Y000851D01*
X017609Y000851D02*
X017859Y000601D01*
X018359Y000601D01*
X018609Y000851D01*
X018609Y001351D01*
X018859Y001601D01*
X019359Y001601D01*
X019609Y001351D01*
X019609Y000851D01*
X019359Y000601D01*
X018859Y000601D01*
X018609Y000851D01*
X018609Y001351D02*
X018359Y001601D01*
X017859Y001601D01*
X017609Y001351D01*
X017459Y001873D02*
X017459Y002353D01*
X017779Y001873D01*
X017779Y002353D01*
X017975Y002353D02*
X018215Y002353D01*
X018295Y002273D01*
X018295Y001953D01*
X018215Y001873D01*
X017975Y001873D01*
X017975Y002353D01*
X018663Y002353D02*
X018663Y002033D01*
X018824Y001873D01*
X018984Y002033D01*
X018984Y002353D01*
X019179Y002353D02*
X019339Y002353D01*
X019259Y002353D02*
X019259Y001873D01*
X019179Y001873D02*
X019339Y001873D01*
X019523Y001873D02*
X019523Y002353D01*
X019843Y001873D01*
X019843Y002353D01*
X020888Y002231D02*
X020888Y002071D01*
X020968Y001991D01*
X021289Y001991D01*
X020968Y002311D01*
X021289Y002311D01*
X021369Y002231D01*
X021369Y002071D01*
X021289Y001991D01*
X020968Y002311D02*
X020888Y002231D01*
X021888Y002151D02*
X022369Y002151D01*
X022369Y001991D02*
X022369Y002311D01*
X022048Y001991D02*
X021888Y002151D01*
X021859Y001651D02*
X022359Y001651D01*
X022609Y001401D01*
X022859Y001651D01*
X023359Y001651D01*
X023609Y001401D01*
X023859Y001651D01*
X024359Y001651D01*
X024609Y001401D01*
X024859Y001651D01*
X025359Y001651D01*
X025609Y001401D01*
X025859Y001651D01*
X026359Y001651D01*
X026609Y001401D01*
X026859Y001651D01*
X027359Y001651D01*
X027609Y001401D01*
X027859Y001651D01*
X028359Y001651D01*
X028609Y001401D01*
X028609Y000901D01*
X028359Y000651D01*
X027859Y000651D01*
X027609Y000901D01*
X027359Y000651D01*
X026859Y000651D01*
X026609Y000901D01*
X026359Y000651D01*
X025859Y000651D01*
X025609Y000901D01*
X025359Y000651D01*
X024859Y000651D01*
X024609Y000901D01*
X024359Y000651D01*
X023859Y000651D01*
X023609Y000901D01*
X023359Y000651D01*
X022859Y000651D01*
X022609Y000901D01*
X022359Y000651D01*
X021859Y000651D01*
X021609Y000901D01*
X021359Y000651D01*
X020859Y000651D01*
X020609Y000901D01*
X020609Y001401D01*
X020859Y001651D01*
X021359Y001651D01*
X021609Y001401D01*
X021859Y001651D01*
X022888Y002071D02*
X022888Y002231D01*
X022968Y002311D01*
X023048Y002311D01*
X023369Y001991D01*
X023369Y002311D01*
X022968Y001991D02*
X022888Y002071D01*
X023888Y002071D02*
X023888Y002231D01*
X023968Y002311D01*
X024048Y002311D01*
X024128Y002231D01*
X024209Y002311D01*
X024289Y002311D01*
X024369Y002231D01*
X024369Y002071D01*
X024289Y001991D01*
X024128Y002151D02*
X024128Y002231D01*
X023968Y001991D02*
X023888Y002071D01*
X024888Y002231D02*
X025128Y001991D01*
X025128Y002311D01*
X024888Y002231D02*
X025369Y002231D01*
X025888Y002311D02*
X025888Y001991D01*
X026128Y001991D01*
X026048Y002151D01*
X026048Y002231D01*
X026128Y002311D01*
X026289Y002311D01*
X026369Y002231D01*
X026369Y002071D01*
X026289Y001991D01*
X026888Y002311D02*
X026968Y002151D01*
X027128Y001991D01*
X027128Y002231D01*
X027209Y002311D01*
X027289Y002311D01*
X027369Y002231D01*
X027369Y002071D01*
X027289Y001991D01*
X027128Y001991D01*
X027888Y001991D02*
X027888Y002311D01*
X027968Y002311D01*
X028289Y001991D01*
X028369Y001991D01*
X029609Y001401D02*
X029859Y001651D01*
X030359Y001651D01*
X030609Y001401D01*
X030859Y001651D01*
X031359Y001651D01*
X031609Y001401D01*
X031859Y001651D01*
X032359Y001651D01*
X032609Y001401D01*
X032859Y001651D01*
X033359Y001651D01*
X033609Y001401D01*
X033859Y001651D01*
X034359Y001651D01*
X034609Y001401D01*
X034859Y001651D01*
X035359Y001651D01*
X035609Y001401D01*
X035859Y001651D01*
X036359Y001651D01*
X036609Y001401D01*
X036859Y001651D01*
X037359Y001651D01*
X037609Y001401D01*
X037609Y000901D01*
X037359Y000651D01*
X036859Y000651D01*
X036609Y000901D01*
X036359Y000651D01*
X035859Y000651D01*
X035609Y000901D01*
X035359Y000651D01*
X034859Y000651D01*
X034609Y000901D01*
X034359Y000651D01*
X033859Y000651D01*
X033609Y000901D01*
X033359Y000651D01*
X032859Y000651D01*
X032609Y000901D01*
X032359Y000651D01*
X031859Y000651D01*
X031609Y000901D01*
X031359Y000651D01*
X030859Y000651D01*
X030609Y000901D01*
X030359Y000651D01*
X029859Y000651D01*
X029609Y000901D01*
X029609Y001401D01*
X029968Y001991D02*
X030048Y001991D01*
X030128Y002071D01*
X030128Y002231D01*
X030209Y002311D01*
X030289Y002311D01*
X030369Y002231D01*
X030369Y002071D01*
X030289Y001991D01*
X030209Y001991D01*
X030128Y002071D01*
X030128Y002231D02*
X030048Y002311D01*
X029968Y002311D01*
X029888Y002231D01*
X029888Y002071D01*
X029968Y001991D01*
X030888Y002071D02*
X030968Y001991D01*
X031048Y001991D01*
X031128Y002071D01*
X031128Y002311D01*
X030968Y002311D02*
X031289Y002311D01*
X031369Y002231D01*
X031369Y002071D01*
X031289Y001991D01*
X030888Y002071D02*
X030888Y002231D01*
X030968Y002311D01*
X031888Y002151D02*
X032369Y002151D01*
X032369Y001991D02*
X032369Y002311D01*
X032289Y002507D02*
X031968Y002827D01*
X032289Y002827D01*
X032369Y002747D01*
X032369Y002587D01*
X032289Y002507D01*
X031968Y002507D01*
X031888Y002587D01*
X031888Y002747D01*
X031968Y002827D01*
X032888Y002667D02*
X033048Y002507D01*
X032888Y002667D02*
X033369Y002667D01*
X033369Y002507D02*
X033369Y002827D01*
X033888Y002747D02*
X033888Y002587D01*
X033968Y002507D01*
X033888Y002747D02*
X033968Y002827D01*
X034048Y002827D01*
X034369Y002507D01*
X034369Y002827D01*
X034888Y002747D02*
X034888Y002587D01*
X034968Y002507D01*
X035128Y002667D02*
X035128Y002747D01*
X035209Y002827D01*
X035289Y002827D01*
X035369Y002747D01*
X035369Y002587D01*
X035289Y002507D01*
X035369Y002311D02*
X035369Y001991D01*
X035369Y002151D02*
X034888Y002151D01*
X035048Y001991D01*
X035588Y002151D02*
X036069Y002151D01*
X036069Y001991D02*
X036069Y002311D01*
X035828Y002507D02*
X035828Y002827D01*
X035588Y002747D02*
X035828Y002507D01*
X035588Y002747D02*
X036069Y002747D01*
X036488Y002827D02*
X036488Y002507D01*
X036728Y002507D01*
X036648Y002667D01*
X036648Y002747D01*
X036728Y002827D01*
X036889Y002827D01*
X036969Y002747D01*
X036969Y002587D01*
X036889Y002507D01*
X036969Y002311D02*
X036969Y001991D01*
X036969Y002151D02*
X036488Y002151D01*
X036648Y001991D01*
X035748Y001991D02*
X035588Y002151D01*
X035128Y002747D02*
X035048Y002827D01*
X034968Y002827D01*
X034888Y002747D01*
X034369Y002311D02*
X034369Y001991D01*
X034369Y002151D02*
X033888Y002151D01*
X034048Y001991D01*
X033369Y001991D02*
X033369Y002311D01*
X033369Y002151D02*
X032888Y002151D01*
X033048Y001991D01*
X032048Y001991D02*
X031888Y002151D01*
X036649Y004021D02*
X036729Y003941D01*
X036889Y003941D01*
X036969Y004021D01*
X036969Y004181D01*
X036889Y004261D01*
X036809Y004261D01*
X036649Y004181D01*
X036649Y004422D01*
X036969Y004422D01*
X037164Y004341D02*
X037244Y004422D01*
X037404Y004422D01*
X037485Y004341D01*
X037485Y004261D01*
X037164Y003941D01*
X037485Y003941D01*
X037609Y003901D02*
X037859Y003651D01*
X037609Y003401D01*
X037609Y002901D01*
X037859Y002651D01*
X038359Y002651D01*
X038609Y002901D01*
X038859Y002651D01*
X039359Y002651D01*
X039609Y002901D01*
X039609Y003401D01*
X039359Y003651D01*
X038859Y003651D01*
X038609Y003401D01*
X038359Y003651D01*
X037859Y003651D01*
X038359Y003651D01*
X038609Y003901D01*
X038609Y004401D01*
X038359Y004651D01*
X038609Y004901D01*
X038609Y005401D01*
X038359Y005651D01*
X038609Y005901D01*
X038609Y006401D01*
X038359Y006651D01*
X038609Y006901D01*
X038609Y007401D01*
X038359Y007651D01*
X038609Y007901D01*
X038609Y008401D01*
X038359Y008651D01*
X038609Y008901D01*
X038609Y009401D01*
X038359Y009651D01*
X038609Y009901D01*
X038609Y010401D01*
X038359Y010651D01*
X038609Y010901D01*
X038609Y011401D01*
X038359Y011651D01*
X038609Y011901D01*
X038609Y012401D01*
X038359Y012651D01*
X038609Y012901D01*
X038609Y013401D01*
X038359Y013651D01*
X038609Y013901D01*
X038609Y014401D01*
X038359Y014651D01*
X038609Y014901D01*
X038609Y015401D01*
X038359Y015651D01*
X038609Y015901D01*
X038609Y016401D01*
X038359Y016651D01*
X038609Y016901D01*
X038609Y017401D01*
X038359Y017651D01*
X038609Y017901D01*
X038609Y018401D01*
X038359Y018651D01*
X038609Y018901D01*
X038609Y019401D01*
X038359Y019651D01*
X037859Y019651D01*
X037609Y019901D01*
X037609Y020401D01*
X037859Y020651D01*
X038359Y020651D01*
X038609Y020401D01*
X038859Y020651D01*
X039359Y020651D01*
X039609Y020401D01*
X039609Y019901D01*
X039359Y019651D01*
X038859Y019651D01*
X038609Y019901D01*
X038359Y019651D01*
X037859Y019651D01*
X037609Y019401D01*
X037609Y018901D01*
X037859Y018651D01*
X037609Y018401D01*
X037609Y017901D01*
X037859Y017651D01*
X037609Y017401D01*
X037609Y016901D01*
X037859Y016651D01*
X037609Y016401D01*
X037609Y015901D01*
X037859Y015651D01*
X037609Y015401D01*
X037609Y014901D01*
X037859Y014651D01*
X037609Y014401D01*
X037609Y013901D01*
X037859Y013651D01*
X037609Y013401D01*
X037609Y012901D01*
X037859Y012651D01*
X037609Y012401D01*
X037609Y011901D01*
X037859Y011651D01*
X037609Y011401D01*
X037609Y010901D01*
X037859Y010651D01*
X037609Y010401D01*
X037609Y009901D01*
X037859Y009651D01*
X037609Y009401D01*
X037609Y008901D01*
X037859Y008651D01*
X037609Y008401D01*
X037609Y007901D01*
X037859Y007651D01*
X037609Y007401D01*
X037609Y006901D01*
X037859Y006651D01*
X037609Y006401D01*
X037609Y005901D01*
X037859Y005651D01*
X037609Y005401D01*
X037609Y004901D01*
X037859Y004651D01*
X037609Y004401D01*
X037609Y003901D01*
X038609Y003901D02*
X038859Y003651D01*
X039359Y003651D01*
X039609Y003901D01*
X039609Y004401D01*
X039359Y004651D01*
X039609Y004901D01*
X039609Y005401D01*
X039359Y005651D01*
X039609Y005901D01*
X039609Y006401D01*
X039359Y006651D01*
X039609Y006901D01*
X039609Y007401D01*
X039359Y007651D01*
X039609Y007901D01*
X039609Y008401D01*
X039359Y008651D01*
X039609Y008901D01*
X039609Y009401D01*
X039359Y009651D01*
X039609Y009901D01*
X039609Y010401D01*
X039359Y010651D01*
X039609Y010901D01*
X039609Y011401D01*
X039359Y011651D01*
X039609Y011901D01*
X039609Y012401D01*
X039359Y012651D01*
X039609Y012901D01*
X039609Y013401D01*
X039359Y013651D01*
X039609Y013901D01*
X039609Y014401D01*
X039359Y014651D01*
X039609Y014901D01*
X039609Y015401D01*
X039359Y015651D01*
X039609Y015901D01*
X039609Y016401D01*
X039359Y016651D01*
X039609Y016901D01*
X039609Y017401D01*
X039359Y017651D01*
X039609Y017901D01*
X039609Y018401D01*
X039359Y018651D01*
X039609Y018901D01*
X039609Y019401D01*
X039359Y019651D01*
X038859Y019651D01*
X038609Y019401D01*
X038609Y018901D01*
X038859Y018651D01*
X038609Y018401D01*
X038609Y017901D01*
X038859Y017651D01*
X038609Y017401D01*
X038609Y016901D01*
X038859Y016651D01*
X038609Y016401D01*
X038609Y015901D01*
X038859Y015651D01*
X038609Y015401D01*
X038609Y014901D01*
X038859Y014651D01*
X038609Y014401D01*
X038609Y013901D01*
X038859Y013651D01*
X038609Y013401D01*
X038609Y012901D01*
X038859Y012651D01*
X038609Y012401D01*
X038609Y011901D01*
X038859Y011651D01*
X038609Y011401D01*
X038609Y010901D01*
X038859Y010651D01*
X038609Y010401D01*
X038609Y009901D01*
X038859Y009651D01*
X038609Y009401D01*
X038609Y008901D01*
X038859Y008651D01*
X038609Y008401D01*
X038609Y007901D01*
X038859Y007651D01*
X038609Y007401D01*
X038609Y006901D01*
X038859Y006651D01*
X038609Y006401D01*
X038609Y005901D01*
X038859Y005651D01*
X038609Y005401D01*
X038609Y004901D01*
X038859Y004651D01*
X038609Y004401D01*
X038609Y003901D01*
X039899Y004021D02*
X039979Y003941D01*
X040139Y003941D01*
X040219Y004021D01*
X040219Y004181D01*
X040139Y004261D01*
X040059Y004261D01*
X039899Y004181D01*
X039899Y004422D01*
X040219Y004422D01*
X040414Y004341D02*
X040494Y004422D01*
X040654Y004422D01*
X040735Y004341D01*
X040735Y004261D01*
X040654Y004181D01*
X040735Y004101D01*
X040735Y004021D01*
X040654Y003941D01*
X040494Y003941D01*
X040414Y004021D01*
X040574Y004181D02*
X040654Y004181D01*
X040574Y004941D02*
X040574Y005422D01*
X040414Y005261D01*
X040219Y005181D02*
X040219Y005021D01*
X040139Y004941D01*
X039979Y004941D01*
X039899Y005021D01*
X039899Y005181D02*
X040059Y005261D01*
X040139Y005261D01*
X040219Y005181D01*
X040414Y004941D02*
X040735Y004941D01*
X039899Y005181D02*
X039899Y005422D01*
X040219Y005422D01*
X040139Y005941D02*
X040139Y006422D01*
X039899Y006181D01*
X040219Y006181D01*
X040414Y006261D02*
X040494Y006181D01*
X040735Y006181D01*
X040735Y006021D02*
X040735Y006341D01*
X040654Y006422D01*
X040494Y006422D01*
X040414Y006341D01*
X040414Y006261D01*
X040414Y006021D02*
X040494Y005941D01*
X040654Y005941D01*
X040735Y006021D01*
X040414Y006941D02*
X040414Y007021D01*
X040735Y007341D01*
X040735Y007422D01*
X040414Y007422D01*
X040139Y007422D02*
X039899Y007181D01*
X040219Y007181D01*
X040139Y006941D02*
X040139Y007422D01*
X040139Y007941D02*
X040139Y008422D01*
X039899Y008181D01*
X040219Y008181D01*
X040414Y008181D02*
X040574Y008261D01*
X040654Y008261D01*
X040735Y008181D01*
X040735Y008021D01*
X040654Y007941D01*
X040494Y007941D01*
X040414Y008021D01*
X040414Y008181D02*
X040414Y008422D01*
X040735Y008422D01*
X040654Y008941D02*
X040494Y008941D01*
X040414Y009021D01*
X040574Y009181D02*
X040654Y009181D01*
X040735Y009101D01*
X040735Y009021D01*
X040654Y008941D01*
X040654Y009181D02*
X040735Y009261D01*
X040735Y009341D01*
X040654Y009422D01*
X040494Y009422D01*
X040414Y009341D01*
X040219Y009181D02*
X039899Y009181D01*
X040139Y009422D01*
X040139Y008941D01*
X040139Y009941D02*
X040139Y010422D01*
X039899Y010181D01*
X040219Y010181D01*
X040414Y010261D02*
X040574Y010422D01*
X040574Y009941D01*
X040414Y009941D02*
X040735Y009941D01*
X040654Y010941D02*
X040494Y010941D01*
X040414Y011021D01*
X040494Y011181D02*
X040735Y011181D01*
X040735Y011021D02*
X040735Y011341D01*
X040654Y011422D01*
X040494Y011422D01*
X040414Y011341D01*
X040414Y011261D01*
X040494Y011181D01*
X040219Y011101D02*
X040219Y011021D01*
X040139Y010941D01*
X039979Y010941D01*
X039899Y011021D01*
X040059Y011181D02*
X040139Y011181D01*
X040219Y011101D01*
X040139Y011181D02*
X040219Y011261D01*
X040219Y011341D01*
X040139Y011422D01*
X039979Y011422D01*
X039899Y011341D01*
X040654Y010941D02*
X040735Y011021D01*
X040414Y011941D02*
X040414Y012021D01*
X040735Y012341D01*
X040735Y012422D01*
X040414Y012422D01*
X040219Y012341D02*
X040219Y012261D01*
X040139Y012181D01*
X040219Y012101D01*
X040219Y012021D01*
X040139Y011941D01*
X039979Y011941D01*
X039899Y012021D01*
X040059Y012181D02*
X040139Y012181D01*
X040219Y012341D02*
X040139Y012422D01*
X039979Y012422D01*
X039899Y012341D01*
X039979Y012941D02*
X039899Y013021D01*
X039979Y012941D02*
X040139Y012941D01*
X040219Y013021D01*
X040219Y013101D01*
X040139Y013181D01*
X040059Y013181D01*
X040139Y013181D02*
X040219Y013261D01*
X040219Y013341D01*
X040139Y013422D01*
X039979Y013422D01*
X039899Y013341D01*
X040414Y013422D02*
X040414Y013181D01*
X040574Y013261D01*
X040654Y013261D01*
X040735Y013181D01*
X040735Y013021D01*
X040654Y012941D01*
X040494Y012941D01*
X040414Y013021D01*
X040414Y013422D02*
X040735Y013422D01*
X040654Y013941D02*
X040494Y013941D01*
X040414Y014021D01*
X040219Y014021D02*
X040139Y013941D01*
X039979Y013941D01*
X039899Y014021D01*
X040059Y014181D02*
X040139Y014181D01*
X040219Y014101D01*
X040219Y014021D01*
X040139Y014181D02*
X040219Y014261D01*
X040219Y014341D01*
X040139Y014422D01*
X039979Y014422D01*
X039899Y014341D01*
X040414Y014341D02*
X040494Y014422D01*
X040654Y014422D01*
X040735Y014341D01*
X040735Y014261D01*
X040654Y014181D01*
X040735Y014101D01*
X040735Y014021D01*
X040654Y013941D01*
X040654Y014181D02*
X040574Y014181D01*
X040574Y014941D02*
X040574Y015422D01*
X040414Y015261D01*
X040219Y015261D02*
X040139Y015181D01*
X040219Y015101D01*
X040219Y015021D01*
X040139Y014941D01*
X039979Y014941D01*
X039899Y015021D01*
X040059Y015181D02*
X040139Y015181D01*
X040219Y015261D02*
X040219Y015341D01*
X040139Y015422D01*
X039979Y015422D01*
X039899Y015341D01*
X040414Y014941D02*
X040735Y014941D01*
X037485Y015021D02*
X037404Y014941D01*
X037244Y014941D01*
X037164Y015021D01*
X037485Y015341D01*
X037485Y015021D01*
X037485Y015341D02*
X037404Y015422D01*
X037244Y015422D01*
X037164Y015341D01*
X037164Y015021D01*
X036969Y015021D02*
X036889Y014941D01*
X036729Y014941D01*
X036649Y015021D01*
X036809Y015181D02*
X036889Y015181D01*
X036969Y015101D01*
X036969Y015021D01*
X036889Y015181D02*
X036969Y015261D01*
X036969Y015341D01*
X036889Y015422D01*
X036729Y015422D01*
X036649Y015341D01*
X036649Y015941D02*
X036969Y016261D01*
X036969Y016341D01*
X036889Y016422D01*
X036729Y016422D01*
X036649Y016341D01*
X037164Y016341D02*
X037164Y016261D01*
X037244Y016181D01*
X037404Y016181D01*
X037485Y016101D01*
X037485Y016021D01*
X037404Y015941D01*
X037244Y015941D01*
X037164Y016021D01*
X037164Y016101D01*
X037244Y016181D01*
X037404Y016181D02*
X037485Y016261D01*
X037485Y016341D01*
X037404Y016422D01*
X037244Y016422D01*
X037164Y016341D01*
X036969Y015941D02*
X036649Y015941D01*
X036649Y016941D02*
X036969Y017261D01*
X036969Y017341D01*
X036889Y017422D01*
X036729Y017422D01*
X036649Y017341D01*
X037164Y017181D02*
X037404Y017181D01*
X037485Y017101D01*
X037485Y017021D01*
X037404Y016941D01*
X037244Y016941D01*
X037164Y017021D01*
X037164Y017181D01*
X037324Y017341D01*
X037485Y017422D01*
X037404Y017941D02*
X037404Y018422D01*
X037164Y018181D01*
X037485Y018181D01*
X036969Y018261D02*
X036969Y018341D01*
X036889Y018422D01*
X036729Y018422D01*
X036649Y018341D01*
X036969Y018261D02*
X036649Y017941D01*
X036969Y017941D01*
X036969Y016941D02*
X036649Y016941D01*
X035319Y016971D02*
X035239Y016891D01*
X035319Y016971D02*
X035319Y017131D01*
X035239Y017211D01*
X035159Y017211D01*
X035078Y017131D01*
X035078Y016971D01*
X034998Y016891D01*
X034918Y016891D01*
X034838Y016971D01*
X034838Y017131D01*
X034918Y017211D01*
X034918Y017407D02*
X035239Y017407D01*
X035319Y017487D01*
X035319Y017647D01*
X035239Y017727D01*
X035319Y017922D02*
X034838Y017922D01*
X034918Y017727D02*
X034838Y017647D01*
X034838Y017487D01*
X034918Y017407D01*
X034319Y017407D02*
X034319Y017647D01*
X034239Y017727D01*
X033918Y017727D01*
X033838Y017647D01*
X033838Y017407D01*
X034319Y017407D01*
X034239Y017211D02*
X034319Y017131D01*
X034319Y016971D01*
X034239Y016891D01*
X034078Y016971D02*
X034078Y017131D01*
X034159Y017211D01*
X034239Y017211D01*
X034078Y016971D02*
X033998Y016891D01*
X033918Y016891D01*
X033838Y016971D01*
X033838Y017131D01*
X033918Y017211D01*
X033319Y017211D02*
X033159Y017051D01*
X033159Y017131D02*
X033159Y016891D01*
X033319Y016891D02*
X032838Y016891D01*
X032838Y017131D01*
X032918Y017211D01*
X033078Y017211D01*
X033159Y017131D01*
X033319Y017407D02*
X032838Y017727D01*
X032998Y017922D02*
X032838Y018083D01*
X033319Y018083D01*
X033319Y018243D02*
X033319Y017922D01*
X033319Y017727D02*
X032838Y017407D01*
X032319Y017407D02*
X031838Y017727D01*
X031998Y017922D02*
X031838Y018083D01*
X032319Y018083D01*
X032319Y018243D02*
X032319Y017922D01*
X032319Y017727D02*
X031838Y017407D01*
X031838Y017211D02*
X031838Y016891D01*
X031838Y017051D02*
X032319Y017051D01*
X031319Y016891D02*
X030838Y016891D01*
X030838Y017131D01*
X030918Y017211D01*
X031078Y017211D01*
X031159Y017131D01*
X031159Y016891D01*
X031159Y017051D02*
X031319Y017211D01*
X031319Y017407D02*
X030838Y017727D01*
X030918Y017922D02*
X030838Y018002D01*
X030838Y018163D01*
X030918Y018243D01*
X030998Y018243D01*
X031319Y017922D01*
X031319Y018243D01*
X031319Y018591D02*
X031319Y018911D01*
X031319Y018751D02*
X030838Y018751D01*
X030998Y018591D01*
X030319Y018591D02*
X030319Y018911D01*
X030319Y018751D02*
X029838Y018751D01*
X029998Y018591D01*
X029998Y018243D02*
X029918Y018243D01*
X029838Y018163D01*
X029838Y018002D01*
X029918Y017922D01*
X029838Y017727D02*
X030319Y017407D01*
X030319Y017727D02*
X029838Y017407D01*
X029838Y017211D02*
X029838Y016891D01*
X029838Y017051D02*
X030319Y017051D01*
X030838Y017407D02*
X031319Y017727D01*
X030319Y017922D02*
X029998Y018243D01*
X030319Y018243D02*
X030319Y017922D01*
X029319Y018002D02*
X029239Y017922D01*
X029319Y018002D02*
X029319Y018163D01*
X029239Y018243D01*
X029159Y018243D01*
X029078Y018163D01*
X029078Y018083D01*
X029078Y018163D02*
X028998Y018243D01*
X028918Y018243D01*
X028838Y018163D01*
X028838Y018002D01*
X028918Y017922D01*
X028838Y017727D02*
X029319Y017407D01*
X029319Y017211D02*
X029159Y017051D01*
X029159Y017131D02*
X029159Y016891D01*
X029319Y016891D02*
X028838Y016891D01*
X028838Y017131D01*
X028918Y017211D01*
X029078Y017211D01*
X029159Y017131D01*
X028838Y017407D02*
X029319Y017727D01*
X028319Y017727D02*
X027838Y017407D01*
X027838Y017211D02*
X027838Y016891D01*
X027838Y017051D02*
X028319Y017051D01*
X028319Y017407D02*
X027838Y017727D01*
X027918Y017922D02*
X027838Y018002D01*
X027838Y018163D01*
X027918Y018243D01*
X027998Y018243D01*
X028078Y018163D01*
X028159Y018243D01*
X028239Y018243D01*
X028319Y018163D01*
X028319Y018002D01*
X028239Y017922D01*
X028078Y018083D02*
X028078Y018163D01*
X027998Y018591D02*
X027838Y018751D01*
X028319Y018751D01*
X028319Y018591D02*
X028319Y018911D01*
X028078Y019107D02*
X028078Y019427D01*
X027838Y019347D02*
X028078Y019107D01*
X027838Y019347D02*
X028319Y019347D01*
X028359Y019651D02*
X027859Y019651D01*
X027609Y019901D01*
X027609Y020401D01*
X027859Y020651D01*
X028359Y020651D01*
X028609Y020401D01*
X028859Y020651D01*
X029359Y020651D01*
X029609Y020401D01*
X029859Y020651D01*
X030359Y020651D01*
X030609Y020401D01*
X030859Y020651D01*
X031359Y020651D01*
X031609Y020401D01*
X031859Y020651D01*
X032359Y020651D01*
X032609Y020401D01*
X032859Y020651D01*
X033359Y020651D01*
X033609Y020401D01*
X033859Y020651D01*
X034359Y020651D01*
X034609Y020401D01*
X034859Y020651D01*
X035359Y020651D01*
X035609Y020401D01*
X035609Y019901D01*
X035359Y019651D01*
X034859Y019651D01*
X034609Y019901D01*
X034359Y019651D01*
X033859Y019651D01*
X033609Y019901D01*
X033359Y019651D01*
X032859Y019651D01*
X032609Y019901D01*
X032359Y019651D01*
X031859Y019651D01*
X031609Y019901D01*
X031359Y019651D01*
X030859Y019651D01*
X030609Y019901D01*
X030359Y019651D01*
X029859Y019651D01*
X029609Y019901D01*
X029359Y019651D01*
X028859Y019651D01*
X028609Y019901D01*
X028359Y019651D01*
X028838Y019427D02*
X028838Y019107D01*
X029078Y019107D01*
X028998Y019267D01*
X028998Y019347D01*
X029078Y019427D01*
X029239Y019427D01*
X029319Y019347D01*
X029319Y019187D01*
X029239Y019107D01*
X029319Y018911D02*
X029319Y018591D01*
X029319Y018751D02*
X028838Y018751D01*
X028998Y018591D01*
X029918Y019267D02*
X030078Y019107D01*
X030078Y019347D01*
X030159Y019427D01*
X030239Y019427D01*
X030319Y019347D01*
X030319Y019187D01*
X030239Y019107D01*
X030078Y019107D01*
X029918Y019267D02*
X029838Y019427D01*
X030838Y019427D02*
X030838Y019107D01*
X030838Y019427D02*
X030918Y019427D01*
X031239Y019107D01*
X031319Y019107D01*
X031838Y019187D02*
X031838Y019347D01*
X031918Y019427D01*
X031998Y019427D01*
X032078Y019347D01*
X032078Y019187D01*
X031998Y019107D01*
X031918Y019107D01*
X031838Y019187D01*
X032078Y019187D02*
X032159Y019107D01*
X032239Y019107D01*
X032319Y019187D01*
X032319Y019347D01*
X032239Y019427D01*
X032159Y019427D01*
X032078Y019347D01*
X032319Y018911D02*
X032319Y018591D01*
X032319Y018751D02*
X031838Y018751D01*
X031998Y018591D01*
X032838Y018751D02*
X032998Y018591D01*
X032838Y018751D02*
X033319Y018751D01*
X033319Y018591D02*
X033319Y018911D01*
X033239Y019107D02*
X033319Y019187D01*
X033319Y019347D01*
X033239Y019427D01*
X032918Y019427D01*
X032838Y019347D01*
X032838Y019187D01*
X032918Y019107D01*
X032998Y019107D01*
X033078Y019187D01*
X033078Y019427D01*
X033838Y019347D02*
X033838Y019187D01*
X033918Y019107D01*
X034239Y019107D01*
X033918Y019427D01*
X034239Y019427D01*
X034319Y019347D01*
X034319Y019187D01*
X034239Y019107D01*
X034319Y018911D02*
X034319Y018591D01*
X033998Y018911D01*
X033918Y018911D01*
X033838Y018831D01*
X033838Y018671D01*
X033918Y018591D01*
X033998Y018243D02*
X034319Y018243D01*
X034078Y018243D02*
X034078Y017922D01*
X033998Y017922D02*
X033838Y018083D01*
X033998Y018243D01*
X033998Y017922D02*
X034319Y017922D01*
X034918Y018591D02*
X034838Y018671D01*
X034838Y018831D01*
X034918Y018911D01*
X034998Y018911D01*
X035319Y018591D01*
X035319Y018911D01*
X035319Y019107D02*
X035319Y019427D01*
X035319Y019267D02*
X034838Y019267D01*
X034998Y019107D01*
X033918Y019427D02*
X033838Y019347D01*
X035319Y018243D02*
X035319Y017922D01*
X036649Y018941D02*
X036969Y019261D01*
X036969Y019341D01*
X036889Y019422D01*
X036729Y019422D01*
X036649Y019341D01*
X037164Y019341D02*
X037244Y019422D01*
X037404Y019422D01*
X037485Y019341D01*
X037485Y019261D01*
X037164Y018941D01*
X037485Y018941D01*
X036969Y018941D02*
X036649Y018941D01*
X036729Y014422D02*
X036889Y014422D01*
X036969Y014341D01*
X036969Y014261D01*
X036889Y014181D01*
X036969Y014101D01*
X036969Y014021D01*
X036889Y013941D01*
X036729Y013941D01*
X036649Y014021D01*
X036809Y014181D02*
X036889Y014181D01*
X036649Y014341D02*
X036729Y014422D01*
X037164Y014341D02*
X037244Y014422D01*
X037404Y014422D01*
X037485Y014341D01*
X037485Y014261D01*
X037164Y013941D01*
X037485Y013941D01*
X037404Y013422D02*
X037164Y013181D01*
X037485Y013181D01*
X037404Y012941D02*
X037404Y013422D01*
X036969Y013341D02*
X036969Y013261D01*
X036889Y013181D01*
X036969Y013101D01*
X036969Y013021D01*
X036889Y012941D01*
X036729Y012941D01*
X036649Y013021D01*
X036809Y013181D02*
X036889Y013181D01*
X036969Y013341D02*
X036889Y013422D01*
X036729Y013422D01*
X036649Y013341D01*
X036729Y012422D02*
X036889Y012422D01*
X036969Y012341D01*
X036969Y012261D01*
X036889Y012181D01*
X036969Y012101D01*
X036969Y012021D01*
X036889Y011941D01*
X036729Y011941D01*
X036649Y012021D01*
X036809Y012181D02*
X036889Y012181D01*
X037164Y012181D02*
X037404Y012181D01*
X037485Y012101D01*
X037485Y012021D01*
X037404Y011941D01*
X037244Y011941D01*
X037164Y012021D01*
X037164Y012181D01*
X037324Y012341D01*
X037485Y012422D01*
X036729Y012422D02*
X036649Y012341D01*
X036729Y011422D02*
X036889Y011422D01*
X036969Y011341D01*
X036969Y011261D01*
X036889Y011181D01*
X036969Y011101D01*
X036969Y011021D01*
X036889Y010941D01*
X036729Y010941D01*
X036649Y011021D01*
X036809Y011181D02*
X036889Y011181D01*
X037164Y011101D02*
X037244Y011181D01*
X037404Y011181D01*
X037485Y011101D01*
X037485Y011021D01*
X037404Y010941D01*
X037244Y010941D01*
X037164Y011021D01*
X037164Y011101D01*
X037244Y011181D02*
X037164Y011261D01*
X037164Y011341D01*
X037244Y011422D01*
X037404Y011422D01*
X037485Y011341D01*
X037485Y011261D01*
X037404Y011181D01*
X036729Y011422D02*
X036649Y011341D01*
X036889Y010422D02*
X036649Y010181D01*
X036969Y010181D01*
X037164Y010021D02*
X037164Y010341D01*
X037244Y010422D01*
X037404Y010422D01*
X037485Y010341D01*
X037164Y010021D01*
X037244Y009941D01*
X037404Y009941D01*
X037485Y010021D01*
X037485Y010341D01*
X036889Y010422D02*
X036889Y009941D01*
X036889Y009422D02*
X036649Y009181D01*
X036969Y009181D01*
X037164Y009341D02*
X037244Y009422D01*
X037404Y009422D01*
X037485Y009341D01*
X037485Y009261D01*
X037164Y008941D01*
X037485Y008941D01*
X036889Y008941D02*
X036889Y009422D01*
X036889Y008422D02*
X036649Y008181D01*
X036969Y008181D01*
X037164Y008181D02*
X037485Y008181D01*
X037404Y007941D02*
X037404Y008422D01*
X037164Y008181D01*
X036889Y007941D02*
X036889Y008422D01*
X036889Y007422D02*
X036649Y007181D01*
X036969Y007181D01*
X037164Y007181D02*
X037404Y007181D01*
X037485Y007101D01*
X037485Y007021D01*
X037404Y006941D01*
X037244Y006941D01*
X037164Y007021D01*
X037164Y007181D01*
X037324Y007341D01*
X037485Y007422D01*
X036889Y007422D02*
X036889Y006941D01*
X036889Y006422D02*
X036649Y006181D01*
X036969Y006181D01*
X037164Y006101D02*
X037244Y006181D01*
X037404Y006181D01*
X037485Y006101D01*
X037485Y006021D01*
X037404Y005941D01*
X037244Y005941D01*
X037164Y006021D01*
X037164Y006101D01*
X037244Y006181D02*
X037164Y006261D01*
X037164Y006341D01*
X037244Y006422D01*
X037404Y006422D01*
X037485Y006341D01*
X037485Y006261D01*
X037404Y006181D01*
X036889Y005941D02*
X036889Y006422D01*
X036969Y005422D02*
X036649Y005422D01*
X036649Y005181D01*
X036809Y005261D01*
X036889Y005261D01*
X036969Y005181D01*
X036969Y005021D01*
X036889Y004941D01*
X036729Y004941D01*
X036649Y005021D01*
X037164Y005021D02*
X037244Y004941D01*
X037404Y004941D01*
X037485Y005021D01*
X037485Y005341D01*
X037164Y005021D01*
X037164Y005341D01*
X037244Y005422D01*
X037404Y005422D01*
X037485Y005341D01*
X039729Y002672D02*
X039649Y002591D01*
X039649Y002271D01*
X039729Y002191D01*
X039889Y002191D01*
X039969Y002271D01*
X039969Y002431D01*
X039809Y002431D01*
X039969Y002591D02*
X039889Y002672D01*
X039729Y002672D01*
X040164Y002672D02*
X040485Y002191D01*
X040485Y002672D01*
X040680Y002672D02*
X040920Y002672D01*
X041000Y002591D01*
X041000Y002271D01*
X040920Y002191D01*
X040680Y002191D01*
X040680Y002672D01*
X040164Y002672D02*
X040164Y002191D01*
X026669Y011132D02*
X026631Y011132D01*
X026669Y011132D02*
X026669Y011770D01*
X026631Y011770D01*
X025586Y011770D02*
X025549Y011770D01*
X025549Y011132D01*
X025586Y011132D01*
X025838Y016941D02*
X025838Y017181D01*
X025918Y017261D01*
X026078Y017261D01*
X026159Y017181D01*
X026159Y016941D01*
X026319Y016941D02*
X025838Y016941D01*
X026159Y017101D02*
X026319Y017261D01*
X026319Y017457D02*
X025838Y017777D01*
X025838Y017457D02*
X026319Y017777D01*
X025319Y017777D02*
X024838Y017457D01*
X024838Y017261D02*
X024838Y016941D01*
X024838Y017101D02*
X025319Y017101D01*
X025319Y017457D02*
X024838Y017777D01*
X024998Y018941D02*
X024838Y019101D01*
X025319Y019101D01*
X025319Y018941D02*
X025319Y019261D01*
X025838Y019181D02*
X025838Y019021D01*
X025918Y018941D01*
X026239Y018941D01*
X025918Y019261D01*
X026239Y019261D01*
X026319Y019181D01*
X026319Y019021D01*
X026239Y018941D01*
X025918Y019261D02*
X025838Y019181D01*
X025859Y019651D02*
X025609Y019901D01*
X025359Y019651D01*
X024859Y019651D01*
X024609Y019901D01*
X024359Y019651D01*
X023859Y019651D01*
X023609Y019901D01*
X023359Y019651D01*
X022859Y019651D01*
X022609Y019901D01*
X022359Y019651D01*
X021859Y019651D01*
X021609Y019901D01*
X021359Y019651D01*
X020859Y019651D01*
X020609Y019901D01*
X020359Y019651D01*
X019859Y019651D01*
X019609Y019901D01*
X019359Y019651D01*
X018859Y019651D01*
X018609Y019901D01*
X018609Y020401D01*
X018859Y020651D01*
X019359Y020651D01*
X019609Y020401D01*
X019859Y020651D01*
X020359Y020651D01*
X020609Y020401D01*
X020859Y020651D01*
X021359Y020651D01*
X021609Y020401D01*
X021859Y020651D01*
X022359Y020651D01*
X022609Y020401D01*
X022859Y020651D01*
X023359Y020651D01*
X023609Y020401D01*
X023859Y020651D01*
X024359Y020651D01*
X024609Y020401D01*
X024859Y020651D01*
X025359Y020651D01*
X025609Y020401D01*
X025859Y020651D01*
X026359Y020651D01*
X026609Y020401D01*
X026609Y019901D01*
X026359Y019651D01*
X025859Y019651D01*
X024319Y019261D02*
X024319Y018941D01*
X023998Y019261D01*
X023918Y019261D01*
X023838Y019181D01*
X023838Y019021D01*
X023918Y018941D01*
X023319Y019021D02*
X023319Y019181D01*
X023239Y019261D01*
X023159Y019261D01*
X023078Y019181D01*
X023078Y019101D01*
X023078Y019181D02*
X022998Y019261D01*
X022918Y019261D01*
X022838Y019181D01*
X022838Y019021D01*
X022918Y018941D01*
X023239Y018941D02*
X023319Y019021D01*
X022319Y019181D02*
X021838Y019181D01*
X022078Y018941D01*
X022078Y019261D01*
X021319Y019181D02*
X021319Y019021D01*
X021239Y018941D01*
X021078Y018941D02*
X020998Y019101D01*
X020998Y019181D01*
X021078Y019261D01*
X021239Y019261D01*
X021319Y019181D01*
X021078Y018941D02*
X020838Y018941D01*
X020838Y019261D01*
X020319Y019181D02*
X020319Y019021D01*
X020239Y018941D01*
X020078Y018941D01*
X020078Y019181D01*
X020159Y019261D01*
X020239Y019261D01*
X020319Y019181D01*
X020078Y018941D02*
X019918Y019101D01*
X019838Y019261D01*
X019319Y018941D02*
X019239Y018941D01*
X018918Y019261D01*
X018838Y019261D01*
X018838Y018941D01*
X017819Y019021D02*
X017739Y018941D01*
X017659Y018941D01*
X017578Y019021D01*
X017578Y019181D01*
X017659Y019261D01*
X017739Y019261D01*
X017819Y019181D01*
X017819Y019021D01*
X017578Y019021D02*
X017498Y018941D01*
X017418Y018941D01*
X017338Y019021D01*
X017338Y019181D01*
X017418Y019261D01*
X017498Y019261D01*
X017578Y019181D01*
X017359Y019651D02*
X017109Y019901D01*
X016859Y019651D01*
X016359Y019651D01*
X016109Y019901D01*
X015859Y019651D01*
X015359Y019651D01*
X015109Y019901D01*
X014859Y019651D01*
X014359Y019651D01*
X014109Y019901D01*
X013859Y019651D01*
X013359Y019651D01*
X013109Y019901D01*
X012859Y019651D01*
X012359Y019651D01*
X012109Y019901D01*
X011859Y019651D01*
X011359Y019651D01*
X011109Y019901D01*
X010859Y019651D01*
X010359Y019651D01*
X010109Y019901D01*
X010109Y020401D01*
X010359Y020651D01*
X010859Y020651D01*
X011109Y020401D01*
X011359Y020651D01*
X011859Y020651D01*
X012109Y020401D01*
X012359Y020651D01*
X012859Y020651D01*
X013109Y020401D01*
X013359Y020651D01*
X013859Y020651D01*
X014109Y020401D01*
X014359Y020651D01*
X014859Y020651D01*
X015109Y020401D01*
X015359Y020651D01*
X015859Y020651D01*
X016109Y020401D01*
X016359Y020651D01*
X016859Y020651D01*
X017109Y020401D01*
X017359Y020651D01*
X017859Y020651D01*
X018109Y020401D01*
X018109Y019901D01*
X017859Y019651D01*
X017359Y019651D01*
X016819Y019181D02*
X016739Y019261D01*
X016418Y019261D01*
X016338Y019181D01*
X016338Y019021D01*
X016418Y018941D01*
X016498Y018941D01*
X016578Y019021D01*
X016578Y019261D01*
X016819Y019181D02*
X016819Y019021D01*
X016739Y018941D01*
X015819Y019037D02*
X015739Y018957D01*
X015418Y019277D01*
X015739Y019277D01*
X015819Y019197D01*
X015819Y019037D01*
X015739Y018957D02*
X015418Y018957D01*
X015338Y019037D01*
X015338Y019197D01*
X015418Y019277D01*
X014819Y019277D02*
X014819Y018957D01*
X014819Y019117D02*
X014338Y019117D01*
X014498Y018957D01*
X014819Y018761D02*
X014819Y018441D01*
X014819Y018601D02*
X014338Y018601D01*
X014498Y018441D01*
X013819Y018441D02*
X013819Y018761D01*
X013819Y018601D02*
X013338Y018601D01*
X013498Y018441D01*
X013418Y018957D02*
X013338Y019037D01*
X013338Y019197D01*
X013418Y019277D01*
X013498Y019277D01*
X013819Y018957D01*
X013819Y019277D01*
X012819Y019197D02*
X012819Y019037D01*
X012739Y018957D01*
X012819Y018761D02*
X012819Y018441D01*
X012819Y018601D02*
X012338Y018601D01*
X012498Y018441D01*
X012418Y018957D02*
X012338Y019037D01*
X012338Y019197D01*
X012418Y019277D01*
X012498Y019277D01*
X012578Y019197D01*
X012659Y019277D01*
X012739Y019277D01*
X012819Y019197D01*
X012578Y019197D02*
X012578Y019117D01*
X011661Y019127D02*
X011661Y019367D01*
X011581Y019447D01*
X011261Y019447D01*
X011181Y019367D01*
X011181Y019127D01*
X011661Y019127D01*
X011661Y018932D02*
X011181Y018932D01*
X010707Y018937D02*
X010707Y018617D01*
X010227Y018617D01*
X010227Y018937D01*
X010227Y019133D02*
X010227Y019453D01*
X010467Y019293D02*
X010467Y019133D01*
X010707Y019133D02*
X010227Y019133D01*
X010467Y018777D02*
X010467Y018617D01*
X010467Y018422D02*
X010307Y018422D01*
X010227Y018342D01*
X010227Y018102D01*
X010707Y018102D01*
X010547Y018102D02*
X010547Y018342D01*
X010467Y018422D01*
X010547Y018262D02*
X010707Y018422D01*
X011181Y018336D02*
X011181Y018176D01*
X011261Y018096D01*
X011581Y018096D01*
X011661Y018176D01*
X011661Y018336D01*
X011581Y018416D01*
X011421Y018416D01*
X011421Y018256D01*
X011261Y018416D02*
X011181Y018336D01*
X011181Y018612D02*
X011661Y018932D01*
X011661Y018612D02*
X011181Y018612D01*
X010707Y017906D02*
X010387Y017906D01*
X010227Y017746D01*
X010387Y017586D01*
X010707Y017586D01*
X010467Y017586D02*
X010467Y017906D01*
X015338Y018601D02*
X015819Y018601D01*
X015819Y018441D02*
X015819Y018761D01*
X015498Y018441D02*
X015338Y018601D01*
X015227Y003217D02*
X015307Y003137D01*
X015307Y002977D01*
X015227Y002897D01*
X015147Y002702D02*
X014827Y002702D01*
X014907Y002897D02*
X014827Y002977D01*
X014827Y003137D01*
X014907Y003217D01*
X014987Y003217D01*
X015067Y003137D01*
X015147Y003217D01*
X015227Y003217D01*
X015067Y003137D02*
X015067Y003057D01*
X015147Y002702D02*
X015307Y002542D01*
X015147Y002382D01*
X014827Y002382D01*
X014907Y002186D02*
X014987Y002186D01*
X015067Y002106D01*
X015147Y002186D01*
X015227Y002186D01*
X015307Y002106D01*
X015307Y001946D01*
X015227Y001866D01*
X015067Y002026D02*
X015067Y002106D01*
X014907Y002186D02*
X014827Y002106D01*
X014827Y001946D01*
X014907Y001866D01*
X014609Y001351D02*
X014359Y001601D01*
X013859Y001601D01*
X013609Y001351D01*
X013827Y001866D02*
X013827Y002106D01*
X013907Y002186D01*
X014067Y002186D01*
X014147Y002106D01*
X014147Y001866D01*
X014307Y001866D02*
X013827Y001866D01*
X014147Y002026D02*
X014307Y002186D01*
X014307Y002382D02*
X013827Y002382D01*
X013827Y002702D01*
X013907Y002897D02*
X013987Y002897D01*
X014067Y002977D01*
X014067Y003137D01*
X014147Y003217D01*
X014227Y003217D01*
X014307Y003137D01*
X014307Y002977D01*
X014227Y002897D01*
X014307Y002702D02*
X014307Y002382D01*
X014067Y002382D02*
X014067Y002542D01*
X013907Y002897D02*
X013827Y002977D01*
X013827Y003137D01*
X013907Y003217D01*
X015743Y002353D02*
X015743Y002113D01*
X015904Y002193D01*
X015984Y002193D01*
X016064Y002113D01*
X016064Y001953D01*
X015984Y001873D01*
X015824Y001873D01*
X015743Y001953D01*
X015743Y002353D02*
X016064Y002353D01*
X016259Y002353D02*
X016259Y002033D01*
X016419Y001873D01*
X016579Y002033D01*
X016579Y002353D01*
X016943Y002273D02*
X016943Y001953D01*
X017024Y001873D01*
X017184Y001873D01*
X017264Y001953D01*
X017264Y002113D01*
X017104Y002113D01*
X017264Y002273D02*
X017184Y002353D01*
X017024Y002353D01*
X016943Y002273D01*
X016359Y001601D02*
X015859Y001601D01*
X015609Y001351D01*
X016359Y001601D02*
X016609Y001351D01*
D11*
X018357Y003080D02*
X018357Y004222D01*
X028460Y004222D01*
X028460Y003080D01*
X018357Y003080D01*
X019169Y010911D02*
X020249Y010911D01*
X020249Y011991D01*
X019169Y011991D01*
X019169Y010911D01*
X020009Y011631D02*
X020009Y011871D01*
X020030Y011869D01*
X020050Y011864D01*
X020069Y011855D01*
X020086Y011843D01*
X020101Y011828D01*
X020113Y011811D01*
X020122Y011792D01*
X020127Y011772D01*
X020129Y011751D01*
X020127Y011730D01*
X020122Y011710D01*
X020113Y011691D01*
X020101Y011674D01*
X020086Y011659D01*
X020069Y011647D01*
X020050Y011638D01*
X020030Y011633D01*
X020009Y011631D01*
X022169Y011991D02*
X022169Y010911D01*
X023249Y010911D01*
X023249Y011991D01*
X022169Y011991D01*
X023009Y011871D02*
X023009Y011631D01*
X023030Y011633D01*
X023050Y011638D01*
X023069Y011647D01*
X023086Y011659D01*
X023101Y011674D01*
X023113Y011691D01*
X023122Y011710D01*
X023127Y011730D01*
X023129Y011751D01*
X023127Y011772D01*
X023122Y011792D01*
X023113Y011811D01*
X023101Y011828D01*
X023086Y011843D01*
X023069Y011855D01*
X023050Y011864D01*
X023030Y011869D01*
X023009Y011871D01*
X026602Y015951D02*
X026789Y015951D01*
X026882Y016045D01*
X027116Y016045D02*
X027210Y015951D01*
X027397Y015951D01*
X027490Y016045D01*
X027490Y016418D01*
X027397Y016512D01*
X027210Y016512D01*
X027116Y016418D01*
X027116Y016045D01*
X026882Y016418D02*
X026789Y016512D01*
X026602Y016512D01*
X026509Y016418D01*
X026509Y016045D01*
X026602Y015951D01*
X027724Y015951D02*
X027724Y016512D01*
X027911Y016325D01*
X028098Y016512D01*
X028098Y015951D01*
X028332Y015951D02*
X028332Y016512D01*
X028519Y016325D01*
X028705Y016512D01*
X028705Y015951D01*
X028940Y016045D02*
X029033Y015951D01*
X029220Y015951D01*
X029313Y016045D01*
X029313Y016512D01*
X029547Y016512D02*
X029921Y015951D01*
X029921Y016512D01*
X030155Y016512D02*
X030342Y016512D01*
X030248Y016512D02*
X030248Y015951D01*
X030155Y015951D02*
X030342Y015951D01*
X030560Y016045D02*
X030653Y015951D01*
X030840Y015951D01*
X030934Y016045D01*
X031168Y015951D02*
X031168Y016325D01*
X031355Y016512D01*
X031541Y016325D01*
X031541Y015951D01*
X031541Y016231D02*
X031168Y016231D01*
X030934Y016418D02*
X030840Y016512D01*
X030653Y016512D01*
X030560Y016418D01*
X030560Y016045D01*
X029547Y015951D02*
X029547Y016512D01*
X028940Y016512D02*
X028940Y016045D01*
X031776Y016512D02*
X032149Y016512D01*
X031962Y016512D02*
X031962Y015951D01*
X032383Y015951D02*
X032570Y015951D01*
X032477Y015951D02*
X032477Y016512D01*
X032570Y016512D02*
X032383Y016512D01*
X032788Y016418D02*
X032788Y016045D01*
X032882Y015951D01*
X033069Y015951D01*
X033162Y016045D01*
X033162Y016418D01*
X033069Y016512D01*
X032882Y016512D01*
X032788Y016418D01*
X033396Y016512D02*
X033770Y015951D01*
X033770Y016512D01*
X033396Y016512D02*
X033396Y015951D01*
X036309Y013066D02*
X036309Y012692D01*
X035748Y012692D01*
X035935Y012458D02*
X036309Y012458D01*
X036028Y012458D02*
X036028Y012085D01*
X035935Y012085D02*
X035748Y012271D01*
X035935Y012458D01*
X035935Y012085D02*
X036309Y012085D01*
X035748Y011850D02*
X035748Y011477D01*
X035748Y011664D02*
X036309Y011664D01*
X036309Y011259D02*
X036309Y011072D01*
X036309Y011165D02*
X035748Y011165D01*
X035748Y011072D02*
X035748Y011259D01*
X035842Y010838D02*
X035748Y010744D01*
X035748Y010557D01*
X035842Y010464D01*
X036215Y010464D01*
X036309Y010557D01*
X036309Y010744D01*
X036215Y010838D01*
X036028Y010838D01*
X036028Y010651D01*
X035748Y010246D02*
X035748Y010059D01*
X035748Y010152D02*
X036309Y010152D01*
X036309Y010059D02*
X036309Y010246D01*
X036215Y009825D02*
X035842Y009825D01*
X035748Y009731D01*
X035748Y009451D01*
X036309Y009451D01*
X036309Y009731D01*
X036215Y009825D01*
X018998Y017701D02*
X018998Y018262D01*
X018811Y018075D01*
X018624Y018262D01*
X018624Y017701D01*
X018390Y017701D02*
X018390Y018262D01*
X018016Y018262D02*
X018016Y017701D01*
X018203Y017888D01*
X018390Y017701D01*
X017782Y017981D02*
X017689Y017888D01*
X017409Y017888D01*
X017409Y017701D02*
X017409Y018262D01*
X017689Y018262D01*
X017782Y018168D01*
X017782Y017981D01*
D12*
X020709Y017651D02*
X020709Y017051D01*
X020711Y017034D01*
X020715Y017017D01*
X020722Y017001D01*
X020732Y016987D01*
X020745Y016974D01*
X020759Y016964D01*
X020775Y016957D01*
X020792Y016953D01*
X020809Y016951D01*
X020959Y016951D01*
X021009Y017001D01*
X022409Y017001D01*
X022459Y016951D01*
X022609Y016951D01*
X022626Y016953D01*
X022643Y016957D01*
X022659Y016964D01*
X022673Y016974D01*
X022686Y016987D01*
X022696Y017001D01*
X022703Y017017D01*
X022707Y017034D01*
X022709Y017051D01*
X022709Y017651D01*
X022707Y017668D01*
X022703Y017685D01*
X022696Y017701D01*
X022686Y017715D01*
X022673Y017728D01*
X022659Y017738D01*
X022643Y017745D01*
X022626Y017749D01*
X022609Y017751D01*
X022459Y017751D01*
X022409Y017701D01*
X021009Y017701D01*
X020959Y017751D01*
X020809Y017751D01*
X020792Y017749D01*
X020775Y017745D01*
X020759Y017738D01*
X020745Y017728D01*
X020732Y017715D01*
X020722Y017701D01*
X020715Y017685D01*
X020711Y017668D01*
X020709Y017651D01*
X020809Y016551D02*
X020959Y016551D01*
X021009Y016501D01*
X022409Y016501D01*
X022459Y016551D01*
X022609Y016551D01*
X022626Y016549D01*
X022643Y016545D01*
X022659Y016538D01*
X022673Y016528D01*
X022686Y016515D01*
X022696Y016501D01*
X022703Y016485D01*
X022707Y016468D01*
X022709Y016451D01*
X022709Y015851D01*
X022707Y015834D01*
X022703Y015817D01*
X022696Y015801D01*
X022686Y015787D01*
X022673Y015774D01*
X022659Y015764D01*
X022643Y015757D01*
X022626Y015753D01*
X022609Y015751D01*
X022459Y015751D01*
X022409Y015801D01*
X021009Y015801D01*
X020959Y015751D01*
X020809Y015751D01*
X020792Y015753D01*
X020775Y015757D01*
X020759Y015764D01*
X020745Y015774D01*
X020732Y015787D01*
X020722Y015801D01*
X020715Y015817D01*
X020711Y015834D01*
X020709Y015851D01*
X020709Y016451D01*
X020711Y016468D01*
X020715Y016485D01*
X020722Y016501D01*
X020732Y016515D01*
X020745Y016528D01*
X020759Y016538D01*
X020775Y016545D01*
X020792Y016549D01*
X020809Y016551D01*
X030859Y014651D02*
X033159Y014651D01*
X033159Y005651D01*
X032409Y005651D01*
X032407Y005690D01*
X032401Y005729D01*
X032392Y005767D01*
X032379Y005804D01*
X032362Y005840D01*
X032342Y005873D01*
X032318Y005905D01*
X032292Y005934D01*
X032263Y005960D01*
X032231Y005984D01*
X032198Y006004D01*
X032162Y006021D01*
X032125Y006034D01*
X032087Y006043D01*
X032048Y006049D01*
X032009Y006051D01*
X031970Y006049D01*
X031931Y006043D01*
X031893Y006034D01*
X031856Y006021D01*
X031820Y006004D01*
X031787Y005984D01*
X031755Y005960D01*
X031726Y005934D01*
X031700Y005905D01*
X031676Y005873D01*
X031656Y005840D01*
X031639Y005804D01*
X031626Y005767D01*
X031617Y005729D01*
X031611Y005690D01*
X031609Y005651D01*
X030859Y005651D01*
X030859Y014651D01*
X037152Y020688D02*
X037209Y020631D01*
X037322Y020631D01*
X037379Y020688D01*
X037379Y020801D01*
X037322Y020858D01*
X037265Y020858D01*
X037152Y020801D01*
X037152Y020971D01*
X037379Y020971D01*
X037520Y020971D02*
X037520Y020745D01*
X037634Y020631D01*
X037747Y020745D01*
X037747Y020971D01*
X028417Y004084D02*
X018401Y004084D01*
D13*
X026465Y011301D02*
X026467Y011308D01*
X026472Y011313D01*
X026479Y011315D01*
X026486Y011313D01*
X026491Y011308D01*
X026493Y011301D01*
X026491Y011294D01*
X026486Y011289D01*
X026479Y011287D01*
X026472Y011289D01*
X026467Y011294D01*
X026465Y011301D01*
X026209Y016351D02*
X025559Y016351D01*
X025109Y016801D01*
X023709Y017901D02*
X024109Y018301D01*
X023709Y017901D02*
X019359Y017901D01*
X017109Y017901D02*
X013009Y017901D01*
X012609Y018301D01*
X033909Y016351D02*
X034709Y016351D01*
X035109Y016751D01*
X036109Y018801D02*
X036459Y019151D01*
X036109Y018801D02*
X036109Y013401D01*
X036109Y009151D02*
X036109Y004551D01*
X036459Y004201D01*
X038109Y002401D02*
X038109Y002201D01*
X039109Y002201D01*
X039109Y002401D01*
X039109Y020651D02*
X039109Y020901D01*
X038109Y020901D01*
X038109Y020651D01*
D14*
X026359Y018651D02*
X026109Y018151D01*
X025859Y018651D01*
X026109Y018401D01*
X026109Y018651D01*
X026359Y018651D01*
X026109Y018401D01*
X026109Y018651D02*
X025859Y018651D01*
X025359Y018151D02*
X025109Y018401D01*
X025109Y018151D01*
X025359Y018151D01*
X025109Y018651D01*
X024859Y018151D01*
X025109Y018401D01*
X025109Y018151D02*
X024859Y018151D01*
D15*
X013244Y014991D02*
X013050Y014991D01*
X013147Y014894D02*
X013147Y015088D01*
X012654Y015088D02*
X012606Y015136D01*
X012509Y015136D01*
X012461Y015088D01*
X012461Y015039D01*
X012509Y014991D01*
X012558Y014991D01*
X012509Y014991D02*
X012461Y014943D01*
X012461Y014894D01*
X012509Y014846D01*
X012606Y014846D01*
X012654Y014894D01*
X012360Y014894D02*
X012360Y015088D01*
X012166Y014894D01*
X012166Y015088D01*
X012215Y015136D01*
X012311Y015136D01*
X012360Y015088D01*
X012360Y014894D02*
X012311Y014846D01*
X012215Y014846D01*
X012166Y014894D01*
X011770Y014991D02*
X011577Y014991D01*
X010394Y014991D02*
X010200Y014991D01*
X010297Y014894D02*
X010297Y015088D01*
X009804Y015088D02*
X009756Y015136D01*
X009659Y015136D01*
X009611Y015088D01*
X009611Y015039D01*
X009659Y014991D01*
X009708Y014991D01*
X009659Y014991D02*
X009611Y014943D01*
X009611Y014894D01*
X009659Y014846D01*
X009756Y014846D01*
X009804Y014894D01*
X009510Y014894D02*
X009461Y014846D01*
X009365Y014846D01*
X009316Y014894D01*
X009316Y014943D01*
X009510Y015136D01*
X009316Y015136D01*
X008920Y014991D02*
X008727Y014991D01*
X007594Y014991D02*
X007400Y014991D01*
X007497Y014894D02*
X007497Y015088D01*
X007004Y015088D02*
X006956Y015136D01*
X006859Y015136D01*
X006811Y015088D01*
X006811Y015039D01*
X006859Y014991D01*
X006908Y014991D01*
X006859Y014991D02*
X006811Y014943D01*
X006811Y014894D01*
X006859Y014846D01*
X006956Y014846D01*
X007004Y014894D01*
X006710Y014894D02*
X006710Y014943D01*
X006661Y014991D01*
X006565Y014991D01*
X006516Y015039D01*
X006516Y015088D01*
X006565Y015136D01*
X006661Y015136D01*
X006710Y015088D01*
X006710Y015039D01*
X006661Y014991D01*
X006565Y014991D02*
X006516Y014943D01*
X006516Y014894D01*
X006565Y014846D01*
X006661Y014846D01*
X006710Y014894D01*
X006120Y014991D02*
X005927Y014991D01*
X004944Y014991D02*
X004750Y014991D01*
X004847Y014894D02*
X004847Y015088D01*
X004354Y014991D02*
X004209Y014846D01*
X004209Y015136D01*
X004161Y014991D02*
X004354Y014991D01*
X004060Y014894D02*
X004011Y014846D01*
X003915Y014846D01*
X003866Y014894D01*
X004060Y015088D01*
X004011Y015136D01*
X003915Y015136D01*
X003866Y015088D01*
X003866Y014894D01*
X004060Y014894D02*
X004060Y015088D01*
X003470Y014991D02*
X003277Y014991D01*
X002394Y014894D02*
X002394Y015088D01*
X002345Y015136D01*
X002249Y015136D01*
X002200Y015088D01*
X002200Y014991D01*
X002297Y014991D01*
X002394Y014894D02*
X002345Y014846D01*
X002249Y014846D01*
X002200Y014894D01*
X002099Y014846D02*
X001906Y015136D01*
X001906Y014846D01*
X001804Y014846D02*
X001659Y014846D01*
X001611Y014894D01*
X001611Y015088D01*
X001659Y015136D01*
X001804Y015136D01*
X001804Y014846D01*
X002099Y014846D02*
X002099Y015136D01*
X002108Y008456D02*
X001963Y008311D01*
X002156Y008311D01*
X002258Y008263D02*
X002354Y008166D01*
X002451Y008263D01*
X002451Y008456D01*
X002258Y008456D02*
X002258Y008263D01*
X002108Y008166D02*
X002108Y008456D01*
X001862Y008408D02*
X001813Y008456D01*
X001717Y008456D01*
X001668Y008408D01*
X001567Y008311D02*
X001374Y008311D01*
X001470Y008215D02*
X001470Y008408D01*
X001668Y008166D02*
X001862Y008360D01*
X001862Y008408D01*
X001862Y008166D02*
X001668Y008166D01*
X003124Y008311D02*
X003317Y008311D01*
X003713Y008408D02*
X003761Y008456D01*
X003858Y008456D01*
X003906Y008408D01*
X003906Y008360D01*
X003713Y008166D01*
X003906Y008166D01*
X004008Y008215D02*
X004008Y008263D01*
X004056Y008311D01*
X004153Y008311D01*
X004201Y008263D01*
X004201Y008215D01*
X004153Y008166D01*
X004056Y008166D01*
X004008Y008215D01*
X004056Y008311D02*
X004008Y008360D01*
X004008Y008408D01*
X004056Y008456D01*
X004153Y008456D01*
X004201Y008408D01*
X004201Y008360D01*
X004153Y008311D01*
X004597Y008311D02*
X004790Y008311D01*
X004694Y008215D02*
X004694Y008408D01*
X005974Y008311D02*
X006167Y008311D01*
X006563Y008408D02*
X006611Y008456D01*
X006708Y008456D01*
X006756Y008408D01*
X006756Y008360D01*
X006563Y008166D01*
X006756Y008166D01*
X006858Y008215D02*
X006906Y008166D01*
X007003Y008166D01*
X007051Y008215D01*
X007051Y008263D01*
X007003Y008311D01*
X006858Y008311D01*
X006858Y008215D01*
X006858Y008311D02*
X006954Y008408D01*
X007051Y008456D01*
X007447Y008311D02*
X007640Y008311D01*
X007544Y008215D02*
X007544Y008408D01*
X008724Y008311D02*
X008917Y008311D01*
X009313Y008408D02*
X009361Y008456D01*
X009458Y008456D01*
X009506Y008408D01*
X009506Y008360D01*
X009313Y008166D01*
X009506Y008166D01*
X009608Y008311D02*
X009801Y008311D01*
X009753Y008166D02*
X009753Y008456D01*
X009608Y008311D01*
X010197Y008311D02*
X010390Y008311D01*
X010294Y008215D02*
X010294Y008408D01*
X011574Y008311D02*
X011767Y008311D01*
X012163Y008408D02*
X012211Y008456D01*
X012308Y008456D01*
X012356Y008408D01*
X012356Y008360D01*
X012163Y008166D01*
X012356Y008166D01*
X012458Y008166D02*
X012651Y008360D01*
X012651Y008408D01*
X012603Y008456D01*
X012506Y008456D01*
X012458Y008408D01*
X012458Y008166D02*
X012651Y008166D01*
X013047Y008311D02*
X013240Y008311D01*
X013144Y008215D02*
X013144Y008408D01*
X019524Y004856D02*
X019669Y004856D01*
X019717Y004808D01*
X019717Y004615D01*
X019669Y004566D01*
X019524Y004566D01*
X019524Y004856D01*
X019818Y004760D02*
X019915Y004856D01*
X020012Y004760D01*
X020012Y004566D01*
X020113Y004615D02*
X020161Y004566D01*
X020258Y004566D01*
X020306Y004615D01*
X020408Y004566D02*
X020601Y004760D01*
X020601Y004808D01*
X020553Y004856D01*
X020456Y004856D01*
X020408Y004808D01*
X020306Y004808D02*
X020258Y004856D01*
X020161Y004856D01*
X020113Y004808D01*
X020113Y004615D01*
X020012Y004711D02*
X019818Y004711D01*
X019818Y004760D02*
X019818Y004566D01*
X020408Y004566D02*
X020601Y004566D01*
X020997Y004566D02*
X021190Y004566D01*
X021094Y004566D02*
X021094Y004856D01*
X020997Y004760D01*
X021292Y004711D02*
X021485Y004711D01*
X021586Y004711D02*
X021731Y004856D01*
X021731Y004566D01*
X021780Y004711D02*
X021586Y004711D01*
X024324Y004566D02*
X024469Y004566D01*
X024517Y004615D01*
X024517Y004808D01*
X024469Y004856D01*
X024324Y004856D01*
X024324Y004566D01*
X024618Y004566D02*
X024618Y004760D01*
X024715Y004856D01*
X024812Y004760D01*
X024812Y004566D01*
X024913Y004615D02*
X024913Y004808D01*
X024961Y004856D01*
X025058Y004856D01*
X025106Y004808D01*
X025208Y004760D02*
X025304Y004856D01*
X025304Y004566D01*
X025208Y004566D02*
X025401Y004566D01*
X025106Y004615D02*
X025058Y004566D01*
X024961Y004566D01*
X024913Y004615D01*
X024812Y004711D02*
X024618Y004711D01*
X025797Y004711D02*
X025942Y004711D01*
X025990Y004663D01*
X025990Y004615D01*
X025942Y004566D01*
X025845Y004566D01*
X025797Y004615D01*
X025797Y004711D01*
X025894Y004808D01*
X025990Y004856D01*
X026092Y004711D02*
X026285Y004711D01*
X026386Y004760D02*
X026435Y004711D01*
X026580Y004711D01*
X026580Y004615D02*
X026580Y004808D01*
X026531Y004856D01*
X026435Y004856D01*
X026386Y004808D01*
X026386Y004760D01*
X026386Y004615D02*
X026435Y004566D01*
X026531Y004566D01*
X026580Y004615D01*
X028724Y003856D02*
X028724Y003566D01*
X028869Y003566D01*
X028917Y003615D01*
X028917Y003808D01*
X028869Y003856D01*
X028724Y003856D01*
X029018Y003760D02*
X029018Y003566D01*
X029018Y003711D02*
X029212Y003711D01*
X029212Y003760D02*
X029212Y003566D01*
X029313Y003615D02*
X029361Y003566D01*
X029458Y003566D01*
X029506Y003615D01*
X029608Y003615D02*
X029656Y003566D01*
X029753Y003566D01*
X029801Y003615D01*
X029801Y003663D01*
X029753Y003711D01*
X029704Y003711D01*
X029753Y003711D02*
X029801Y003760D01*
X029801Y003808D01*
X029753Y003856D01*
X029656Y003856D01*
X029608Y003808D01*
X029506Y003808D02*
X029458Y003856D01*
X029361Y003856D01*
X029313Y003808D01*
X029313Y003615D01*
X029212Y003760D02*
X029115Y003856D01*
X029018Y003760D01*
X030197Y003760D02*
X030294Y003856D01*
X030294Y003566D01*
X030390Y003566D02*
X030197Y003566D01*
X030492Y003615D02*
X030492Y003808D01*
X030540Y003856D01*
X030637Y003856D01*
X030685Y003808D01*
X030492Y003615D01*
X030540Y003566D01*
X030637Y003566D01*
X030685Y003615D01*
X030685Y003808D01*
X023306Y002808D02*
X023258Y002856D01*
X023113Y002856D01*
X023113Y002566D01*
X023258Y002566D01*
X023306Y002615D01*
X023306Y002808D01*
X023012Y002856D02*
X023012Y002566D01*
X022818Y002856D01*
X022818Y002566D01*
X022717Y002615D02*
X022717Y002711D01*
X022620Y002711D01*
X022524Y002615D02*
X022572Y002566D01*
X022669Y002566D01*
X022717Y002615D01*
X022717Y002808D02*
X022669Y002856D01*
X022572Y002856D01*
X022524Y002808D01*
X022524Y002615D01*
D16*
X022784Y016151D03*
X020634Y016151D03*
X020634Y017351D03*
X022784Y017351D03*
D17*
X013819Y015769D02*
X013819Y015085D01*
X013819Y014898D01*
X001220Y014898D01*
X001220Y013696D01*
X001220Y013506D01*
X001220Y013186D01*
X001220Y013013D01*
X001220Y012895D01*
X013819Y012895D01*
X013819Y013013D01*
X013819Y013186D01*
X001220Y013186D01*
X001220Y013013D02*
X013819Y013013D01*
X013819Y013186D02*
X013819Y013506D01*
X013819Y013696D01*
X001220Y013696D01*
X001220Y013506D02*
X013819Y013506D01*
X013819Y013696D02*
X013819Y014898D01*
X013819Y015085D02*
X001220Y015085D01*
X001220Y014898D01*
X001220Y015085D02*
X001220Y015769D01*
X013819Y015769D01*
X013160Y015611D02*
X013160Y015304D01*
X013084Y015227D01*
X012930Y015227D01*
X012853Y015304D01*
X012930Y015457D02*
X013160Y015457D01*
X013160Y015611D02*
X013084Y015688D01*
X012930Y015688D01*
X012853Y015611D01*
X012853Y015534D01*
X012930Y015457D01*
X011782Y015381D02*
X011782Y015304D01*
X011706Y015227D01*
X011552Y015227D01*
X011476Y015304D01*
X011476Y015381D01*
X011552Y015457D01*
X011706Y015457D01*
X011782Y015381D01*
X011706Y015457D02*
X011782Y015534D01*
X011782Y015611D01*
X011706Y015688D01*
X011552Y015688D01*
X011476Y015611D01*
X011476Y015534D01*
X011552Y015457D01*
X010407Y015611D02*
X010101Y015304D01*
X010101Y015227D01*
X010101Y015688D02*
X010407Y015688D01*
X010407Y015611D01*
X009032Y015688D02*
X008879Y015611D01*
X008726Y015457D01*
X008956Y015457D01*
X009032Y015381D01*
X009032Y015304D01*
X008956Y015227D01*
X008802Y015227D01*
X008726Y015304D01*
X008726Y015457D01*
X007657Y015457D02*
X007657Y015304D01*
X007581Y015227D01*
X007427Y015227D01*
X007351Y015304D01*
X007351Y015457D02*
X007504Y015534D01*
X007581Y015534D01*
X007657Y015457D01*
X007657Y015688D02*
X007351Y015688D01*
X007351Y015457D01*
X006282Y015457D02*
X005976Y015457D01*
X006206Y015688D01*
X006206Y015227D01*
X006616Y014573D02*
X006614Y014570D01*
X005571Y014293D02*
X005573Y014340D01*
X005579Y014387D01*
X005588Y014433D01*
X005602Y014478D01*
X005619Y014522D01*
X005640Y014565D01*
X005664Y014605D01*
X005691Y014644D01*
X005722Y014680D01*
X005755Y014713D01*
X005791Y014744D01*
X005830Y014771D01*
X005870Y014795D01*
X005913Y014816D01*
X005957Y014833D01*
X006002Y014847D01*
X006048Y014856D01*
X006095Y014862D01*
X006142Y014864D01*
X006189Y014862D01*
X006236Y014856D01*
X006282Y014847D01*
X006327Y014833D01*
X006371Y014816D01*
X006414Y014795D01*
X006454Y014771D01*
X006493Y014744D01*
X006529Y014713D01*
X006562Y014680D01*
X006593Y014644D01*
X006620Y014605D01*
X006644Y014565D01*
X006665Y014522D01*
X006682Y014478D01*
X006696Y014433D01*
X006705Y014387D01*
X006711Y014340D01*
X006713Y014293D01*
X006711Y014246D01*
X006705Y014199D01*
X006696Y014153D01*
X006682Y014108D01*
X006665Y014064D01*
X006644Y014021D01*
X006620Y013981D01*
X006593Y013942D01*
X006562Y013906D01*
X006529Y013873D01*
X006493Y013842D01*
X006454Y013815D01*
X006414Y013791D01*
X006371Y013770D01*
X006327Y013753D01*
X006282Y013739D01*
X006236Y013730D01*
X006189Y013724D01*
X006142Y013722D01*
X006095Y013724D01*
X006048Y013730D01*
X006002Y013739D01*
X005957Y013753D01*
X005913Y013770D01*
X005870Y013791D01*
X005830Y013815D01*
X005791Y013842D01*
X005755Y013873D01*
X005722Y013906D01*
X005691Y013942D01*
X005664Y013981D01*
X005640Y014021D01*
X005619Y014064D01*
X005602Y014108D01*
X005588Y014153D01*
X005579Y014199D01*
X005573Y014246D01*
X005571Y014293D01*
X005236Y014570D02*
X005238Y014573D01*
X004193Y014293D02*
X004195Y014340D01*
X004201Y014387D01*
X004210Y014433D01*
X004224Y014478D01*
X004241Y014522D01*
X004262Y014565D01*
X004286Y014605D01*
X004313Y014644D01*
X004344Y014680D01*
X004377Y014713D01*
X004413Y014744D01*
X004452Y014771D01*
X004492Y014795D01*
X004535Y014816D01*
X004579Y014833D01*
X004624Y014847D01*
X004670Y014856D01*
X004717Y014862D01*
X004764Y014864D01*
X004811Y014862D01*
X004858Y014856D01*
X004904Y014847D01*
X004949Y014833D01*
X004993Y014816D01*
X005036Y014795D01*
X005076Y014771D01*
X005115Y014744D01*
X005151Y014713D01*
X005184Y014680D01*
X005215Y014644D01*
X005242Y014605D01*
X005266Y014565D01*
X005287Y014522D01*
X005304Y014478D01*
X005318Y014433D01*
X005327Y014387D01*
X005333Y014340D01*
X005335Y014293D01*
X005333Y014246D01*
X005327Y014199D01*
X005318Y014153D01*
X005304Y014108D01*
X005287Y014064D01*
X005266Y014021D01*
X005242Y013981D01*
X005215Y013942D01*
X005184Y013906D01*
X005151Y013873D01*
X005115Y013842D01*
X005076Y013815D01*
X005036Y013791D01*
X004993Y013770D01*
X004949Y013753D01*
X004904Y013739D01*
X004858Y013730D01*
X004811Y013724D01*
X004764Y013722D01*
X004717Y013724D01*
X004670Y013730D01*
X004624Y013739D01*
X004579Y013753D01*
X004535Y013770D01*
X004492Y013791D01*
X004452Y013815D01*
X004413Y013842D01*
X004377Y013873D01*
X004344Y013906D01*
X004313Y013942D01*
X004286Y013981D01*
X004262Y014021D01*
X004241Y014064D01*
X004224Y014108D01*
X004210Y014153D01*
X004201Y014199D01*
X004195Y014246D01*
X004193Y014293D01*
X003858Y014570D02*
X003860Y014573D01*
X002815Y014293D02*
X002817Y014340D01*
X002823Y014387D01*
X002832Y014433D01*
X002846Y014478D01*
X002863Y014522D01*
X002884Y014565D01*
X002908Y014605D01*
X002935Y014644D01*
X002966Y014680D01*
X002999Y014713D01*
X003035Y014744D01*
X003074Y014771D01*
X003114Y014795D01*
X003157Y014816D01*
X003201Y014833D01*
X003246Y014847D01*
X003292Y014856D01*
X003339Y014862D01*
X003386Y014864D01*
X003433Y014862D01*
X003480Y014856D01*
X003526Y014847D01*
X003571Y014833D01*
X003615Y014816D01*
X003658Y014795D01*
X003698Y014771D01*
X003737Y014744D01*
X003773Y014713D01*
X003806Y014680D01*
X003837Y014644D01*
X003864Y014605D01*
X003888Y014565D01*
X003909Y014522D01*
X003926Y014478D01*
X003940Y014433D01*
X003949Y014387D01*
X003955Y014340D01*
X003957Y014293D01*
X003955Y014246D01*
X003949Y014199D01*
X003940Y014153D01*
X003926Y014108D01*
X003909Y014064D01*
X003888Y014021D01*
X003864Y013981D01*
X003837Y013942D01*
X003806Y013906D01*
X003773Y013873D01*
X003737Y013842D01*
X003698Y013815D01*
X003658Y013791D01*
X003615Y013770D01*
X003571Y013753D01*
X003526Y013739D01*
X003480Y013730D01*
X003433Y013724D01*
X003386Y013722D01*
X003339Y013724D01*
X003292Y013730D01*
X003246Y013739D01*
X003201Y013753D01*
X003157Y013770D01*
X003114Y013791D01*
X003074Y013815D01*
X003035Y013842D01*
X002999Y013873D01*
X002966Y013906D01*
X002935Y013942D01*
X002908Y013981D01*
X002884Y014021D01*
X002863Y014064D01*
X002846Y014108D01*
X002832Y014153D01*
X002823Y014199D01*
X002817Y014246D01*
X002815Y014293D01*
X002480Y014570D02*
X002482Y014573D01*
X001437Y014293D02*
X001439Y014340D01*
X001445Y014387D01*
X001454Y014433D01*
X001468Y014478D01*
X001485Y014522D01*
X001506Y014565D01*
X001530Y014605D01*
X001557Y014644D01*
X001588Y014680D01*
X001621Y014713D01*
X001657Y014744D01*
X001696Y014771D01*
X001736Y014795D01*
X001779Y014816D01*
X001823Y014833D01*
X001868Y014847D01*
X001914Y014856D01*
X001961Y014862D01*
X002008Y014864D01*
X002055Y014862D01*
X002102Y014856D01*
X002148Y014847D01*
X002193Y014833D01*
X002237Y014816D01*
X002280Y014795D01*
X002320Y014771D01*
X002359Y014744D01*
X002395Y014713D01*
X002428Y014680D01*
X002459Y014644D01*
X002486Y014605D01*
X002510Y014565D01*
X002531Y014522D01*
X002548Y014478D01*
X002562Y014433D01*
X002571Y014387D01*
X002577Y014340D01*
X002579Y014293D01*
X002577Y014246D01*
X002571Y014199D01*
X002562Y014153D01*
X002548Y014108D01*
X002531Y014064D01*
X002510Y014021D01*
X002486Y013981D01*
X002459Y013942D01*
X002428Y013906D01*
X002395Y013873D01*
X002359Y013842D01*
X002320Y013815D01*
X002280Y013791D01*
X002237Y013770D01*
X002193Y013753D01*
X002148Y013739D01*
X002102Y013730D01*
X002055Y013724D01*
X002008Y013722D01*
X001961Y013724D01*
X001914Y013730D01*
X001868Y013739D01*
X001823Y013753D01*
X001779Y013770D01*
X001736Y013791D01*
X001696Y013815D01*
X001657Y013842D01*
X001621Y013873D01*
X001588Y013906D01*
X001557Y013942D01*
X001530Y013981D01*
X001506Y014021D01*
X001485Y014064D01*
X001468Y014108D01*
X001454Y014153D01*
X001445Y014199D01*
X001439Y014246D01*
X001437Y014293D01*
X001331Y013457D02*
X001581Y013457D01*
X001456Y013207D01*
X001331Y013457D01*
X001335Y013449D02*
X001576Y013449D01*
X001557Y013410D02*
X001354Y013410D01*
X001373Y013372D02*
X001538Y013372D01*
X001518Y013333D02*
X001393Y013333D01*
X001412Y013294D02*
X001499Y013294D01*
X001480Y013256D02*
X001431Y013256D01*
X001450Y013217D02*
X001461Y013217D01*
X001199Y011588D02*
X001199Y011470D01*
X001199Y011297D01*
X013797Y011297D01*
X013797Y011470D01*
X013797Y011588D01*
X001199Y011588D01*
X001199Y011470D02*
X013797Y011470D01*
X013797Y011297D02*
X013797Y010978D01*
X013797Y010788D01*
X001199Y010788D01*
X001199Y010978D01*
X001199Y011297D01*
X001199Y010978D02*
X013797Y010978D01*
X013687Y011026D02*
X013437Y011026D01*
X013562Y011276D01*
X013687Y011026D01*
X013670Y011059D02*
X013453Y011059D01*
X013472Y011097D02*
X013651Y011097D01*
X013632Y011136D02*
X013492Y011136D01*
X013511Y011175D02*
X013613Y011175D01*
X013593Y011213D02*
X013530Y011213D01*
X013550Y011252D02*
X013574Y011252D01*
X013797Y010788D02*
X013797Y009586D01*
X001199Y009586D01*
X001199Y009398D01*
X001199Y008714D01*
X013797Y008714D01*
X013797Y009398D01*
X001199Y009398D01*
X001199Y009586D02*
X001199Y010788D01*
X001415Y010191D02*
X001417Y010238D01*
X001423Y010285D01*
X001432Y010331D01*
X001446Y010376D01*
X001463Y010420D01*
X001484Y010463D01*
X001508Y010503D01*
X001535Y010542D01*
X001566Y010578D01*
X001599Y010611D01*
X001635Y010642D01*
X001674Y010669D01*
X001714Y010693D01*
X001757Y010714D01*
X001801Y010731D01*
X001846Y010745D01*
X001892Y010754D01*
X001939Y010760D01*
X001986Y010762D01*
X002033Y010760D01*
X002080Y010754D01*
X002126Y010745D01*
X002171Y010731D01*
X002215Y010714D01*
X002258Y010693D01*
X002298Y010669D01*
X002337Y010642D01*
X002373Y010611D01*
X002406Y010578D01*
X002437Y010542D01*
X002464Y010503D01*
X002488Y010463D01*
X002509Y010420D01*
X002526Y010376D01*
X002540Y010331D01*
X002549Y010285D01*
X002555Y010238D01*
X002557Y010191D01*
X002555Y010144D01*
X002549Y010097D01*
X002540Y010051D01*
X002526Y010006D01*
X002509Y009962D01*
X002488Y009919D01*
X002464Y009879D01*
X002437Y009840D01*
X002406Y009804D01*
X002373Y009771D01*
X002337Y009740D01*
X002298Y009713D01*
X002258Y009689D01*
X002215Y009668D01*
X002171Y009651D01*
X002126Y009637D01*
X002080Y009628D01*
X002033Y009622D01*
X001986Y009620D01*
X001939Y009622D01*
X001892Y009628D01*
X001846Y009637D01*
X001801Y009651D01*
X001757Y009668D01*
X001714Y009689D01*
X001674Y009713D01*
X001635Y009740D01*
X001599Y009771D01*
X001566Y009804D01*
X001535Y009840D01*
X001508Y009879D01*
X001484Y009919D01*
X001463Y009962D01*
X001446Y010006D01*
X001432Y010051D01*
X001423Y010097D01*
X001417Y010144D01*
X001415Y010191D01*
X001514Y009913D02*
X001511Y009911D01*
X001820Y009257D02*
X001744Y009180D01*
X001744Y009103D01*
X001820Y009026D01*
X002050Y009026D01*
X002050Y008873D02*
X002050Y009180D01*
X001974Y009257D01*
X001820Y009257D01*
X001744Y008873D02*
X001820Y008796D01*
X001974Y008796D01*
X002050Y008873D01*
X003121Y008873D02*
X003121Y008950D01*
X003198Y009026D01*
X003352Y009026D01*
X003428Y008950D01*
X003428Y008873D01*
X003352Y008796D01*
X003198Y008796D01*
X003121Y008873D01*
X003198Y009026D02*
X003121Y009103D01*
X003121Y009180D01*
X003198Y009257D01*
X003352Y009257D01*
X003428Y009180D01*
X003428Y009103D01*
X003352Y009026D01*
X004496Y008873D02*
X004496Y008796D01*
X004496Y008873D02*
X004803Y009180D01*
X004803Y009257D01*
X004496Y009257D01*
X004267Y009911D02*
X004269Y009913D01*
X004171Y010191D02*
X004173Y010238D01*
X004179Y010285D01*
X004188Y010331D01*
X004202Y010376D01*
X004219Y010420D01*
X004240Y010463D01*
X004264Y010503D01*
X004291Y010542D01*
X004322Y010578D01*
X004355Y010611D01*
X004391Y010642D01*
X004430Y010669D01*
X004470Y010693D01*
X004513Y010714D01*
X004557Y010731D01*
X004602Y010745D01*
X004648Y010754D01*
X004695Y010760D01*
X004742Y010762D01*
X004789Y010760D01*
X004836Y010754D01*
X004882Y010745D01*
X004927Y010731D01*
X004971Y010714D01*
X005014Y010693D01*
X005054Y010669D01*
X005093Y010642D01*
X005129Y010611D01*
X005162Y010578D01*
X005193Y010542D01*
X005220Y010503D01*
X005244Y010463D01*
X005265Y010420D01*
X005282Y010376D01*
X005296Y010331D01*
X005305Y010285D01*
X005311Y010238D01*
X005313Y010191D01*
X005311Y010144D01*
X005305Y010097D01*
X005296Y010051D01*
X005282Y010006D01*
X005265Y009962D01*
X005244Y009919D01*
X005220Y009879D01*
X005193Y009840D01*
X005162Y009804D01*
X005129Y009771D01*
X005093Y009740D01*
X005054Y009713D01*
X005014Y009689D01*
X004971Y009668D01*
X004927Y009651D01*
X004882Y009637D01*
X004836Y009628D01*
X004789Y009622D01*
X004742Y009620D01*
X004695Y009622D01*
X004648Y009628D01*
X004602Y009637D01*
X004557Y009651D01*
X004513Y009668D01*
X004470Y009689D01*
X004430Y009713D01*
X004391Y009740D01*
X004355Y009771D01*
X004322Y009804D01*
X004291Y009840D01*
X004264Y009879D01*
X004240Y009919D01*
X004219Y009962D01*
X004202Y010006D01*
X004188Y010051D01*
X004179Y010097D01*
X004173Y010144D01*
X004171Y010191D01*
X002793Y010191D02*
X002795Y010238D01*
X002801Y010285D01*
X002810Y010331D01*
X002824Y010376D01*
X002841Y010420D01*
X002862Y010463D01*
X002886Y010503D01*
X002913Y010542D01*
X002944Y010578D01*
X002977Y010611D01*
X003013Y010642D01*
X003052Y010669D01*
X003092Y010693D01*
X003135Y010714D01*
X003179Y010731D01*
X003224Y010745D01*
X003270Y010754D01*
X003317Y010760D01*
X003364Y010762D01*
X003411Y010760D01*
X003458Y010754D01*
X003504Y010745D01*
X003549Y010731D01*
X003593Y010714D01*
X003636Y010693D01*
X003676Y010669D01*
X003715Y010642D01*
X003751Y010611D01*
X003784Y010578D01*
X003815Y010542D01*
X003842Y010503D01*
X003866Y010463D01*
X003887Y010420D01*
X003904Y010376D01*
X003918Y010331D01*
X003927Y010285D01*
X003933Y010238D01*
X003935Y010191D01*
X003933Y010144D01*
X003927Y010097D01*
X003918Y010051D01*
X003904Y010006D01*
X003887Y009962D01*
X003866Y009919D01*
X003842Y009879D01*
X003815Y009840D01*
X003784Y009804D01*
X003751Y009771D01*
X003715Y009740D01*
X003676Y009713D01*
X003636Y009689D01*
X003593Y009668D01*
X003549Y009651D01*
X003504Y009637D01*
X003458Y009628D01*
X003411Y009622D01*
X003364Y009620D01*
X003317Y009622D01*
X003270Y009628D01*
X003224Y009637D01*
X003179Y009651D01*
X003135Y009668D01*
X003092Y009689D01*
X003052Y009713D01*
X003013Y009740D01*
X002977Y009771D01*
X002944Y009804D01*
X002913Y009840D01*
X002886Y009879D01*
X002862Y009919D01*
X002841Y009962D01*
X002824Y010006D01*
X002810Y010051D01*
X002801Y010097D01*
X002795Y010144D01*
X002793Y010191D01*
X002892Y009913D02*
X002889Y009911D01*
X005645Y009911D02*
X005647Y009913D01*
X005549Y010191D02*
X005551Y010238D01*
X005557Y010285D01*
X005566Y010331D01*
X005580Y010376D01*
X005597Y010420D01*
X005618Y010463D01*
X005642Y010503D01*
X005669Y010542D01*
X005700Y010578D01*
X005733Y010611D01*
X005769Y010642D01*
X005808Y010669D01*
X005848Y010693D01*
X005891Y010714D01*
X005935Y010731D01*
X005980Y010745D01*
X006026Y010754D01*
X006073Y010760D01*
X006120Y010762D01*
X006167Y010760D01*
X006214Y010754D01*
X006260Y010745D01*
X006305Y010731D01*
X006349Y010714D01*
X006392Y010693D01*
X006432Y010669D01*
X006471Y010642D01*
X006507Y010611D01*
X006540Y010578D01*
X006571Y010542D01*
X006598Y010503D01*
X006622Y010463D01*
X006643Y010420D01*
X006660Y010376D01*
X006674Y010331D01*
X006683Y010285D01*
X006689Y010238D01*
X006691Y010191D01*
X006689Y010144D01*
X006683Y010097D01*
X006674Y010051D01*
X006660Y010006D01*
X006643Y009962D01*
X006622Y009919D01*
X006598Y009879D01*
X006571Y009840D01*
X006540Y009804D01*
X006507Y009771D01*
X006471Y009740D01*
X006432Y009713D01*
X006392Y009689D01*
X006349Y009668D01*
X006305Y009651D01*
X006260Y009637D01*
X006214Y009628D01*
X006167Y009622D01*
X006120Y009620D01*
X006073Y009622D01*
X006026Y009628D01*
X005980Y009637D01*
X005935Y009651D01*
X005891Y009668D01*
X005848Y009689D01*
X005808Y009713D01*
X005769Y009740D01*
X005733Y009771D01*
X005700Y009804D01*
X005669Y009840D01*
X005642Y009879D01*
X005618Y009919D01*
X005597Y009962D01*
X005580Y010006D01*
X005566Y010051D01*
X005557Y010097D01*
X005551Y010144D01*
X005549Y010191D01*
X007023Y009911D02*
X007025Y009913D01*
X006927Y010191D02*
X006929Y010238D01*
X006935Y010285D01*
X006944Y010331D01*
X006958Y010376D01*
X006975Y010420D01*
X006996Y010463D01*
X007020Y010503D01*
X007047Y010542D01*
X007078Y010578D01*
X007111Y010611D01*
X007147Y010642D01*
X007186Y010669D01*
X007226Y010693D01*
X007269Y010714D01*
X007313Y010731D01*
X007358Y010745D01*
X007404Y010754D01*
X007451Y010760D01*
X007498Y010762D01*
X007545Y010760D01*
X007592Y010754D01*
X007638Y010745D01*
X007683Y010731D01*
X007727Y010714D01*
X007770Y010693D01*
X007810Y010669D01*
X007849Y010642D01*
X007885Y010611D01*
X007918Y010578D01*
X007949Y010542D01*
X007976Y010503D01*
X008000Y010463D01*
X008021Y010420D01*
X008038Y010376D01*
X008052Y010331D01*
X008061Y010285D01*
X008067Y010238D01*
X008069Y010191D01*
X008067Y010144D01*
X008061Y010097D01*
X008052Y010051D01*
X008038Y010006D01*
X008021Y009962D01*
X008000Y009919D01*
X007976Y009879D01*
X007949Y009840D01*
X007918Y009804D01*
X007885Y009771D01*
X007849Y009740D01*
X007810Y009713D01*
X007770Y009689D01*
X007727Y009668D01*
X007683Y009651D01*
X007638Y009637D01*
X007592Y009628D01*
X007545Y009622D01*
X007498Y009620D01*
X007451Y009622D01*
X007404Y009628D01*
X007358Y009637D01*
X007313Y009651D01*
X007269Y009668D01*
X007226Y009689D01*
X007186Y009713D01*
X007147Y009740D01*
X007111Y009771D01*
X007078Y009804D01*
X007047Y009840D01*
X007020Y009879D01*
X006996Y009919D01*
X006975Y009962D01*
X006958Y010006D01*
X006944Y010051D01*
X006935Y010097D01*
X006929Y010144D01*
X006927Y010191D01*
X008401Y009911D02*
X008403Y009913D01*
X008305Y010191D02*
X008307Y010238D01*
X008313Y010285D01*
X008322Y010331D01*
X008336Y010376D01*
X008353Y010420D01*
X008374Y010463D01*
X008398Y010503D01*
X008425Y010542D01*
X008456Y010578D01*
X008489Y010611D01*
X008525Y010642D01*
X008564Y010669D01*
X008604Y010693D01*
X008647Y010714D01*
X008691Y010731D01*
X008736Y010745D01*
X008782Y010754D01*
X008829Y010760D01*
X008876Y010762D01*
X008923Y010760D01*
X008970Y010754D01*
X009016Y010745D01*
X009061Y010731D01*
X009105Y010714D01*
X009148Y010693D01*
X009188Y010669D01*
X009227Y010642D01*
X009263Y010611D01*
X009296Y010578D01*
X009327Y010542D01*
X009354Y010503D01*
X009378Y010463D01*
X009399Y010420D01*
X009416Y010376D01*
X009430Y010331D01*
X009439Y010285D01*
X009445Y010238D01*
X009447Y010191D01*
X009445Y010144D01*
X009439Y010097D01*
X009430Y010051D01*
X009416Y010006D01*
X009399Y009962D01*
X009378Y009919D01*
X009354Y009879D01*
X009327Y009840D01*
X009296Y009804D01*
X009263Y009771D01*
X009227Y009740D01*
X009188Y009713D01*
X009148Y009689D01*
X009105Y009668D01*
X009061Y009651D01*
X009016Y009637D01*
X008970Y009628D01*
X008923Y009622D01*
X008876Y009620D01*
X008829Y009622D01*
X008782Y009628D01*
X008736Y009637D01*
X008691Y009651D01*
X008647Y009668D01*
X008604Y009689D01*
X008564Y009713D01*
X008525Y009740D01*
X008489Y009771D01*
X008456Y009804D01*
X008425Y009840D01*
X008398Y009879D01*
X008374Y009919D01*
X008353Y009962D01*
X008336Y010006D01*
X008322Y010051D01*
X008313Y010097D01*
X008307Y010144D01*
X008305Y010191D01*
X009779Y009911D02*
X009781Y009913D01*
X009683Y010191D02*
X009685Y010238D01*
X009691Y010285D01*
X009700Y010331D01*
X009714Y010376D01*
X009731Y010420D01*
X009752Y010463D01*
X009776Y010503D01*
X009803Y010542D01*
X009834Y010578D01*
X009867Y010611D01*
X009903Y010642D01*
X009942Y010669D01*
X009982Y010693D01*
X010025Y010714D01*
X010069Y010731D01*
X010114Y010745D01*
X010160Y010754D01*
X010207Y010760D01*
X010254Y010762D01*
X010301Y010760D01*
X010348Y010754D01*
X010394Y010745D01*
X010439Y010731D01*
X010483Y010714D01*
X010526Y010693D01*
X010566Y010669D01*
X010605Y010642D01*
X010641Y010611D01*
X010674Y010578D01*
X010705Y010542D01*
X010732Y010503D01*
X010756Y010463D01*
X010777Y010420D01*
X010794Y010376D01*
X010808Y010331D01*
X010817Y010285D01*
X010823Y010238D01*
X010825Y010191D01*
X010823Y010144D01*
X010817Y010097D01*
X010808Y010051D01*
X010794Y010006D01*
X010777Y009962D01*
X010756Y009919D01*
X010732Y009879D01*
X010705Y009840D01*
X010674Y009804D01*
X010641Y009771D01*
X010605Y009740D01*
X010566Y009713D01*
X010526Y009689D01*
X010483Y009668D01*
X010439Y009651D01*
X010394Y009637D01*
X010348Y009628D01*
X010301Y009622D01*
X010254Y009620D01*
X010207Y009622D01*
X010160Y009628D01*
X010114Y009637D01*
X010069Y009651D01*
X010025Y009668D01*
X009982Y009689D01*
X009942Y009713D01*
X009903Y009740D01*
X009867Y009771D01*
X009834Y009804D01*
X009803Y009840D01*
X009776Y009879D01*
X009752Y009919D01*
X009731Y009962D01*
X009714Y010006D01*
X009700Y010051D01*
X009691Y010097D01*
X009685Y010144D01*
X009683Y010191D01*
X011157Y009911D02*
X011159Y009913D01*
X011061Y010191D02*
X011063Y010238D01*
X011069Y010285D01*
X011078Y010331D01*
X011092Y010376D01*
X011109Y010420D01*
X011130Y010463D01*
X011154Y010503D01*
X011181Y010542D01*
X011212Y010578D01*
X011245Y010611D01*
X011281Y010642D01*
X011320Y010669D01*
X011360Y010693D01*
X011403Y010714D01*
X011447Y010731D01*
X011492Y010745D01*
X011538Y010754D01*
X011585Y010760D01*
X011632Y010762D01*
X011679Y010760D01*
X011726Y010754D01*
X011772Y010745D01*
X011817Y010731D01*
X011861Y010714D01*
X011904Y010693D01*
X011944Y010669D01*
X011983Y010642D01*
X012019Y010611D01*
X012052Y010578D01*
X012083Y010542D01*
X012110Y010503D01*
X012134Y010463D01*
X012155Y010420D01*
X012172Y010376D01*
X012186Y010331D01*
X012195Y010285D01*
X012201Y010238D01*
X012203Y010191D01*
X012201Y010144D01*
X012195Y010097D01*
X012186Y010051D01*
X012172Y010006D01*
X012155Y009962D01*
X012134Y009919D01*
X012110Y009879D01*
X012083Y009840D01*
X012052Y009804D01*
X012019Y009771D01*
X011983Y009740D01*
X011944Y009713D01*
X011904Y009689D01*
X011861Y009668D01*
X011817Y009651D01*
X011772Y009637D01*
X011726Y009628D01*
X011679Y009622D01*
X011632Y009620D01*
X011585Y009622D01*
X011538Y009628D01*
X011492Y009637D01*
X011447Y009651D01*
X011403Y009668D01*
X011360Y009689D01*
X011320Y009713D01*
X011281Y009740D01*
X011245Y009771D01*
X011212Y009804D01*
X011181Y009840D01*
X011154Y009879D01*
X011130Y009919D01*
X011109Y009962D01*
X011092Y010006D01*
X011078Y010051D01*
X011069Y010097D01*
X011063Y010144D01*
X011061Y010191D01*
X012535Y009911D02*
X012537Y009913D01*
X012439Y010191D02*
X012441Y010238D01*
X012447Y010285D01*
X012456Y010331D01*
X012470Y010376D01*
X012487Y010420D01*
X012508Y010463D01*
X012532Y010503D01*
X012559Y010542D01*
X012590Y010578D01*
X012623Y010611D01*
X012659Y010642D01*
X012698Y010669D01*
X012738Y010693D01*
X012781Y010714D01*
X012825Y010731D01*
X012870Y010745D01*
X012916Y010754D01*
X012963Y010760D01*
X013010Y010762D01*
X013057Y010760D01*
X013104Y010754D01*
X013150Y010745D01*
X013195Y010731D01*
X013239Y010714D01*
X013282Y010693D01*
X013322Y010669D01*
X013361Y010642D01*
X013397Y010611D01*
X013430Y010578D01*
X013461Y010542D01*
X013488Y010503D01*
X013512Y010463D01*
X013533Y010420D01*
X013550Y010376D01*
X013564Y010331D01*
X013573Y010285D01*
X013579Y010238D01*
X013581Y010191D01*
X013579Y010144D01*
X013573Y010097D01*
X013564Y010051D01*
X013550Y010006D01*
X013533Y009962D01*
X013512Y009919D01*
X013488Y009879D01*
X013461Y009840D01*
X013430Y009804D01*
X013397Y009771D01*
X013361Y009740D01*
X013322Y009713D01*
X013282Y009689D01*
X013239Y009668D01*
X013195Y009651D01*
X013150Y009637D01*
X013104Y009628D01*
X013057Y009622D01*
X013010Y009620D01*
X012963Y009622D01*
X012916Y009628D01*
X012870Y009637D01*
X012825Y009651D01*
X012781Y009668D01*
X012738Y009689D01*
X012698Y009713D01*
X012659Y009740D01*
X012623Y009771D01*
X012590Y009804D01*
X012559Y009840D01*
X012532Y009879D01*
X012508Y009919D01*
X012487Y009962D01*
X012470Y010006D01*
X012456Y010051D01*
X012447Y010097D01*
X012441Y010144D01*
X012439Y010191D01*
X013797Y009586D02*
X013797Y009398D01*
X012900Y009257D02*
X012900Y008796D01*
X013053Y008796D02*
X012746Y008796D01*
X012746Y009103D02*
X012900Y009257D01*
X011678Y009180D02*
X011602Y009257D01*
X011448Y009257D01*
X011371Y009180D01*
X011678Y009180D02*
X011678Y009103D01*
X011371Y008796D01*
X011678Y008796D01*
X010303Y008873D02*
X010227Y008796D01*
X010073Y008796D01*
X009996Y008873D01*
X010150Y009026D02*
X010227Y009026D01*
X010303Y008950D01*
X010303Y008873D01*
X010227Y009026D02*
X010303Y009103D01*
X010303Y009180D01*
X010227Y009257D01*
X010073Y009257D01*
X009996Y009180D01*
X008928Y009026D02*
X008621Y009026D01*
X008852Y009257D01*
X008852Y008796D01*
X007553Y008873D02*
X007477Y008796D01*
X007323Y008796D01*
X007246Y008873D01*
X007246Y009026D02*
X007400Y009103D01*
X007477Y009103D01*
X007553Y009026D01*
X007553Y008873D01*
X007246Y009026D02*
X007246Y009257D01*
X007553Y009257D01*
X006178Y009257D02*
X006025Y009180D01*
X005871Y009026D01*
X006102Y009026D01*
X006178Y008950D01*
X006178Y008873D01*
X006102Y008796D01*
X005948Y008796D01*
X005871Y008873D01*
X005871Y009026D01*
X006948Y014293D02*
X006950Y014340D01*
X006956Y014387D01*
X006965Y014433D01*
X006979Y014478D01*
X006996Y014522D01*
X007017Y014565D01*
X007041Y014605D01*
X007068Y014644D01*
X007099Y014680D01*
X007132Y014713D01*
X007168Y014744D01*
X007207Y014771D01*
X007247Y014795D01*
X007290Y014816D01*
X007334Y014833D01*
X007379Y014847D01*
X007425Y014856D01*
X007472Y014862D01*
X007519Y014864D01*
X007566Y014862D01*
X007613Y014856D01*
X007659Y014847D01*
X007704Y014833D01*
X007748Y014816D01*
X007791Y014795D01*
X007831Y014771D01*
X007870Y014744D01*
X007906Y014713D01*
X007939Y014680D01*
X007970Y014644D01*
X007997Y014605D01*
X008021Y014565D01*
X008042Y014522D01*
X008059Y014478D01*
X008073Y014433D01*
X008082Y014387D01*
X008088Y014340D01*
X008090Y014293D01*
X008088Y014246D01*
X008082Y014199D01*
X008073Y014153D01*
X008059Y014108D01*
X008042Y014064D01*
X008021Y014021D01*
X007997Y013981D01*
X007970Y013942D01*
X007939Y013906D01*
X007906Y013873D01*
X007870Y013842D01*
X007831Y013815D01*
X007791Y013791D01*
X007748Y013770D01*
X007704Y013753D01*
X007659Y013739D01*
X007613Y013730D01*
X007566Y013724D01*
X007519Y013722D01*
X007472Y013724D01*
X007425Y013730D01*
X007379Y013739D01*
X007334Y013753D01*
X007290Y013770D01*
X007247Y013791D01*
X007207Y013815D01*
X007168Y013842D01*
X007132Y013873D01*
X007099Y013906D01*
X007068Y013942D01*
X007041Y013981D01*
X007017Y014021D01*
X006996Y014064D01*
X006979Y014108D01*
X006965Y014153D01*
X006956Y014199D01*
X006950Y014246D01*
X006948Y014293D01*
X007992Y014570D02*
X007994Y014573D01*
X008326Y014293D02*
X008328Y014340D01*
X008334Y014387D01*
X008343Y014433D01*
X008357Y014478D01*
X008374Y014522D01*
X008395Y014565D01*
X008419Y014605D01*
X008446Y014644D01*
X008477Y014680D01*
X008510Y014713D01*
X008546Y014744D01*
X008585Y014771D01*
X008625Y014795D01*
X008668Y014816D01*
X008712Y014833D01*
X008757Y014847D01*
X008803Y014856D01*
X008850Y014862D01*
X008897Y014864D01*
X008944Y014862D01*
X008991Y014856D01*
X009037Y014847D01*
X009082Y014833D01*
X009126Y014816D01*
X009169Y014795D01*
X009209Y014771D01*
X009248Y014744D01*
X009284Y014713D01*
X009317Y014680D01*
X009348Y014644D01*
X009375Y014605D01*
X009399Y014565D01*
X009420Y014522D01*
X009437Y014478D01*
X009451Y014433D01*
X009460Y014387D01*
X009466Y014340D01*
X009468Y014293D01*
X009466Y014246D01*
X009460Y014199D01*
X009451Y014153D01*
X009437Y014108D01*
X009420Y014064D01*
X009399Y014021D01*
X009375Y013981D01*
X009348Y013942D01*
X009317Y013906D01*
X009284Y013873D01*
X009248Y013842D01*
X009209Y013815D01*
X009169Y013791D01*
X009126Y013770D01*
X009082Y013753D01*
X009037Y013739D01*
X008991Y013730D01*
X008944Y013724D01*
X008897Y013722D01*
X008850Y013724D01*
X008803Y013730D01*
X008757Y013739D01*
X008712Y013753D01*
X008668Y013770D01*
X008625Y013791D01*
X008585Y013815D01*
X008546Y013842D01*
X008510Y013873D01*
X008477Y013906D01*
X008446Y013942D01*
X008419Y013981D01*
X008395Y014021D01*
X008374Y014064D01*
X008357Y014108D01*
X008343Y014153D01*
X008334Y014199D01*
X008328Y014246D01*
X008326Y014293D01*
X009370Y014570D02*
X009372Y014573D01*
X009704Y014293D02*
X009706Y014340D01*
X009712Y014387D01*
X009721Y014433D01*
X009735Y014478D01*
X009752Y014522D01*
X009773Y014565D01*
X009797Y014605D01*
X009824Y014644D01*
X009855Y014680D01*
X009888Y014713D01*
X009924Y014744D01*
X009963Y014771D01*
X010003Y014795D01*
X010046Y014816D01*
X010090Y014833D01*
X010135Y014847D01*
X010181Y014856D01*
X010228Y014862D01*
X010275Y014864D01*
X010322Y014862D01*
X010369Y014856D01*
X010415Y014847D01*
X010460Y014833D01*
X010504Y014816D01*
X010547Y014795D01*
X010587Y014771D01*
X010626Y014744D01*
X010662Y014713D01*
X010695Y014680D01*
X010726Y014644D01*
X010753Y014605D01*
X010777Y014565D01*
X010798Y014522D01*
X010815Y014478D01*
X010829Y014433D01*
X010838Y014387D01*
X010844Y014340D01*
X010846Y014293D01*
X010844Y014246D01*
X010838Y014199D01*
X010829Y014153D01*
X010815Y014108D01*
X010798Y014064D01*
X010777Y014021D01*
X010753Y013981D01*
X010726Y013942D01*
X010695Y013906D01*
X010662Y013873D01*
X010626Y013842D01*
X010587Y013815D01*
X010547Y013791D01*
X010504Y013770D01*
X010460Y013753D01*
X010415Y013739D01*
X010369Y013730D01*
X010322Y013724D01*
X010275Y013722D01*
X010228Y013724D01*
X010181Y013730D01*
X010135Y013739D01*
X010090Y013753D01*
X010046Y013770D01*
X010003Y013791D01*
X009963Y013815D01*
X009924Y013842D01*
X009888Y013873D01*
X009855Y013906D01*
X009824Y013942D01*
X009797Y013981D01*
X009773Y014021D01*
X009752Y014064D01*
X009735Y014108D01*
X009721Y014153D01*
X009712Y014199D01*
X009706Y014246D01*
X009704Y014293D01*
X010748Y014570D02*
X010750Y014573D01*
X011082Y014293D02*
X011084Y014340D01*
X011090Y014387D01*
X011099Y014433D01*
X011113Y014478D01*
X011130Y014522D01*
X011151Y014565D01*
X011175Y014605D01*
X011202Y014644D01*
X011233Y014680D01*
X011266Y014713D01*
X011302Y014744D01*
X011341Y014771D01*
X011381Y014795D01*
X011424Y014816D01*
X011468Y014833D01*
X011513Y014847D01*
X011559Y014856D01*
X011606Y014862D01*
X011653Y014864D01*
X011700Y014862D01*
X011747Y014856D01*
X011793Y014847D01*
X011838Y014833D01*
X011882Y014816D01*
X011925Y014795D01*
X011965Y014771D01*
X012004Y014744D01*
X012040Y014713D01*
X012073Y014680D01*
X012104Y014644D01*
X012131Y014605D01*
X012155Y014565D01*
X012176Y014522D01*
X012193Y014478D01*
X012207Y014433D01*
X012216Y014387D01*
X012222Y014340D01*
X012224Y014293D01*
X012222Y014246D01*
X012216Y014199D01*
X012207Y014153D01*
X012193Y014108D01*
X012176Y014064D01*
X012155Y014021D01*
X012131Y013981D01*
X012104Y013942D01*
X012073Y013906D01*
X012040Y013873D01*
X012004Y013842D01*
X011965Y013815D01*
X011925Y013791D01*
X011882Y013770D01*
X011838Y013753D01*
X011793Y013739D01*
X011747Y013730D01*
X011700Y013724D01*
X011653Y013722D01*
X011606Y013724D01*
X011559Y013730D01*
X011513Y013739D01*
X011468Y013753D01*
X011424Y013770D01*
X011381Y013791D01*
X011341Y013815D01*
X011302Y013842D01*
X011266Y013873D01*
X011233Y013906D01*
X011202Y013942D01*
X011175Y013981D01*
X011151Y014021D01*
X011130Y014064D01*
X011113Y014108D01*
X011099Y014153D01*
X011090Y014199D01*
X011084Y014246D01*
X011082Y014293D01*
X012126Y014570D02*
X012128Y014573D01*
X012460Y014293D02*
X012462Y014340D01*
X012468Y014387D01*
X012477Y014433D01*
X012491Y014478D01*
X012508Y014522D01*
X012529Y014565D01*
X012553Y014605D01*
X012580Y014644D01*
X012611Y014680D01*
X012644Y014713D01*
X012680Y014744D01*
X012719Y014771D01*
X012759Y014795D01*
X012802Y014816D01*
X012846Y014833D01*
X012891Y014847D01*
X012937Y014856D01*
X012984Y014862D01*
X013031Y014864D01*
X013078Y014862D01*
X013125Y014856D01*
X013171Y014847D01*
X013216Y014833D01*
X013260Y014816D01*
X013303Y014795D01*
X013343Y014771D01*
X013382Y014744D01*
X013418Y014713D01*
X013451Y014680D01*
X013482Y014644D01*
X013509Y014605D01*
X013533Y014565D01*
X013554Y014522D01*
X013571Y014478D01*
X013585Y014433D01*
X013594Y014387D01*
X013600Y014340D01*
X013602Y014293D01*
X013600Y014246D01*
X013594Y014199D01*
X013585Y014153D01*
X013571Y014108D01*
X013554Y014064D01*
X013533Y014021D01*
X013509Y013981D01*
X013482Y013942D01*
X013451Y013906D01*
X013418Y013873D01*
X013382Y013842D01*
X013343Y013815D01*
X013303Y013791D01*
X013260Y013770D01*
X013216Y013753D01*
X013171Y013739D01*
X013125Y013730D01*
X013078Y013724D01*
X013031Y013722D01*
X012984Y013724D01*
X012937Y013730D01*
X012891Y013739D01*
X012846Y013753D01*
X012802Y013770D01*
X012759Y013791D01*
X012719Y013815D01*
X012680Y013842D01*
X012644Y013873D01*
X012611Y013906D01*
X012580Y013942D01*
X012553Y013981D01*
X012529Y014021D01*
X012508Y014064D01*
X012491Y014108D01*
X012477Y014153D01*
X012468Y014199D01*
X012462Y014246D01*
X012460Y014293D01*
X013504Y014570D02*
X013506Y014573D01*
X004907Y015304D02*
X004831Y015227D01*
X004677Y015227D01*
X004601Y015304D01*
X004754Y015457D02*
X004831Y015457D01*
X004907Y015381D01*
X004907Y015304D01*
X004831Y015457D02*
X004907Y015534D01*
X004907Y015611D01*
X004831Y015688D01*
X004677Y015688D01*
X004601Y015611D01*
X003532Y015611D02*
X003532Y015534D01*
X003226Y015227D01*
X003532Y015227D01*
X003532Y015611D02*
X003456Y015688D01*
X003302Y015688D01*
X003226Y015611D01*
X002157Y015227D02*
X001851Y015227D01*
X002004Y015227D02*
X002004Y015688D01*
X001851Y015534D01*
M02*
