%
M48
M72
T01C0.0197
T02C0.0320
T03C0.0400
T04C0.0433
T05C0.0472
T06C0.1180
T07C0.1260
%
T01
X17109Y4551
X17109Y4551
X17109Y5151
X17109Y5151
X17109Y5751
X17109Y5751
X17109Y6351
X17109Y6351
X18509Y6351
X18509Y6351
X18509Y5751
X18509Y5751
X18509Y5151
X18509Y5151
X18509Y4551
X18509Y4551
X18509Y6951
X18509Y6951
X18509Y7551
X18509Y7551
X18509Y8151
X18509Y8151
X18509Y8751
X18509Y8751
X18509Y9551
X18509Y9551
X17909Y9551
X17909Y9551
X19509Y9551
X19509Y9551
X20109Y9551
X20109Y9551
X20909Y9551
X20909Y9551
X21509Y9551
X21509Y9551
X22109Y9551
X22109Y9551
X22709Y9551
X22709Y9551
X25709Y9551
X25709Y9551
X22309Y13751
X22309Y13751
X23109Y14551
X23109Y14551
X21509Y14551
X21509Y14551
X19109Y13751
X19109Y13751
X26109Y14551
X26109Y14551
T02
X23209Y16151
X23209Y17351
X20209Y17351
X20209Y16151
X30509Y14151
X30509Y13151
X30509Y12151
X30509Y11151
X30509Y10151
X30509Y9151
X30509Y8151
X30509Y7151
X30509Y6151
X33509Y6151
X33509Y7151
X33509Y8151
X33509Y9151
X33509Y10151
X33509Y11151
X33509Y12151
X33509Y13151
X33509Y14151
T03
X38059Y14151
X39059Y14151
X39159Y15151
X38159Y15151
X38059Y16151
X39059Y16151
X39159Y17151
X38159Y17151
X38059Y18151
X39059Y18151
X39159Y19151
X38159Y19151
X38039Y20151
X39179Y20151
X35109Y20101
X34109Y20201
X33109Y20101
X32109Y20201
X31109Y20101
X30109Y20201
X29109Y20101
X28109Y20201
X26109Y20101
X25109Y20201
X24109Y20101
X23109Y20201
X22109Y20101
X21109Y20201
X20109Y20101
X19109Y20201
X17609Y20101
X16609Y20201
X15609Y20101
X14609Y20201
X13609Y20101
X12609Y20201
X11609Y20101
X10609Y20201
X38059Y12151
X39059Y12151
X39159Y13151
X38159Y13151
X38159Y11151
X39159Y11151
X39059Y10151
X38059Y10151
X38159Y9151
X39159Y9151
X39059Y8151
X38059Y8151
X38159Y7151
X39159Y7151
X39059Y6151
X38059Y6151
X38159Y5151
X39159Y5151
X39059Y4151
X38059Y4151
X38039Y3151
X39179Y3151
X37109Y1101
X36109Y1201
X35109Y1101
X34109Y1201
X33109Y1101
X32109Y1201
X31109Y1101
X30109Y1201
X28109Y1101
X27109Y1201
X26109Y1101
X25109Y1201
X24109Y1101
X23109Y1201
X22109Y1101
X21109Y1201
X19109Y1051
X18109Y1151
X17109Y1051
X16109Y1151
X15109Y1051
X14109Y1151
T04
X13010Y10191
X11632Y10191
X10254Y10191
X8876Y10191
X7498Y10191
X6120Y10191
X4742Y10191
X3364Y10191
X1986Y10191
X2008Y14293
X3386Y14293
X4764Y14293
X6142Y14293
X7519Y14293
X8897Y14293
X10275Y14293
X11653Y14293
X13031Y14293
T05
X18909Y3651
X19909Y3651
X20909Y3651
X21909Y3651
X22909Y3651
X23909Y3651
X24909Y3651
X25909Y3651
X26909Y3651
X27909Y3651
T06
X4721Y1701
X3540Y3551
X5902Y3551
T07
X7109Y1151
X39109Y1151
X36609Y20151
X7109Y20151
M30
